<svg version="1.1" xmlns="http://www.w3.org/2000/svg" xmlns:xlink="http://www.w3.org/1999/xlink" width="120.99999" height="168.55627" viewBox="0,0,120.99999,168.55627"><g transform="translate(-259.50002,-101.16671)"><g data-paper-data="{&quot;isPaintingLayer&quot;:true}" fill-rule="nonzero" stroke-linejoin="miter" stroke-miterlimit="10" stroke-dasharray="" stroke-dashoffset="0" style="mix-blend-mode: normal"><path d="M265.00002,251.66673c0,0 -3,-4.6888 -3,-13.56667c0,-17.27008 0,-78.39827 0,-111.66667c0,-13.05358 4.33333,-17.76667 4.33333,-17.76667c0,0 5.20958,-4.41991 18.33082,-4.53066c23.28986,-0.19658 57.85336,-0.46934 70.33584,-0.46934c8.2717,0 15.66667,2.33333 15.66667,2.33333c0,0 7.33333,6.6 7.33333,19.1c0,33.22954 0,96.37562 0,113.66667c0,8.60171 -5.33333,13.9 -5.33333,13.9c0,0 -3.64575,3.66667 -16.33333,3.66667c-25.51067,0 -66.01417,0 -78.66667,0c-7.48623,0 -12.66667,-4.66667 -12.66667,-4.66667z" fill-opacity="0.5098" fill="#a7a7a7" stroke-opacity="0.28235" stroke="#000000" stroke-width="5" stroke-linecap="butt"/><path d="M275.36312,198.69222c0,0 -2.01621,-1.90689 -2.01621,-6.6446c0,-9.21626 0,-41.83763 0,-59.59148c0,-6.96611 3.48558,-9.48127 3.48558,-9.48127c0,0 4.1904,-2.35871 14.74465,-2.41781c18.73352,-0.10491 46.53516,-0.25047 56.57562,-0.25047c6.65346,0 12.6017,1.24519 12.6017,1.24519c0,0 5.89867,3.52213 5.89867,10.19281c0,17.73311 0,51.43133 0,60.65879c0,4.59035 -4.28994,7.4178 -4.28994,7.4178c0,0 -2.93251,1.95674 -13.13794,1.95674c-20.51986,0 -53.09941,0 -63.27663,0c-6.02166,0 -10.18862,-2.4904 -10.18862,-2.4904z" fill-opacity="0.36471" fill="#9c9c9c" stroke-opacity="0.45882" stroke="#000000" stroke-width="5" stroke-linecap="butt"/><path d="M275.36311,246.26436c0,0 -2.01621,-1.25219 -2.01621,-3.62311c0,-4.61214 0,-20.93703 0,-29.82167c0,-3.48609 3.48558,-4.74476 3.48558,-4.74476c0,0 4.1904,-1.18038 14.74465,-1.20996c18.73352,-0.0525 46.53516,-0.12535 56.57562,-0.12535c6.65346,0 12.6017,0.62314 12.6017,0.62314c0,0 5.89867,1.76259 5.89867,5.10084c0,8.87427 0,25.73804 0,30.35579c0,2.29717 -4.28994,3.71213 -4.28994,3.71213c0,0 -2.93251,0.97922 -13.13794,0.97922c-20.51986,0 -53.09941,0 -63.27663,0c-6.02166,0 -10.18862,-1.24628 -10.18862,-1.24628z" fill-opacity="0.30588" fill="#9c9c9c" stroke-opacity="0.27059" stroke="#000000" stroke-width="5" stroke-linecap="butt"/><text transform="translate(287.56986,235.77311) scale(0.72067,0.72067)" font-size="40" xml:space="preserve" fill-opacity="0.19216" fill="#000000" fill-rule="nonzero" stroke-opacity="0.42745" stroke="#000000" stroke-width="1" stroke-linecap="butt" stroke-linejoin="miter" stroke-miterlimit="10" stroke-dasharray="" stroke-dashoffset="0" font-family="Pixel" font-weight="normal" text-anchor="start" style="mix-blend-mode: normal"><tspan x="0" dy="0">bowl</tspan></text><path d="M291.25121,127.45309c0,0 -1.58523,-0.46756 -1.58523,-1.35285c0,-1.72214 0,-7.81775 0,-11.13522c0,-1.30168 2.28978,-1.77166 2.28978,-1.77166c0,0 2.75279,-0.44075 9.68618,-0.45179c12.30658,-0.0196 30.57027,-0.0468 37.16613,-0.0468c4.37085,0 8.27841,0.23268 8.27841,0.23268c0,0 3.875,0.65814 3.875,1.90462c0,3.3136 0,9.61042 0,11.33466c0,0.85775 -2.81818,1.38609 -2.81818,1.38609c0,0 -1.92645,0.36564 -8.63069,0.36564c-13.48008,0 -34.88251,0 -41.56821,0c-3.9558,0 -6.69319,-0.46535 -6.69319,-0.46535z" fill-opacity="0.37255" fill="#9c9c9c" stroke-opacity="0.44314" stroke="#000000" stroke-width="3" stroke-linecap="butt"/><path d="M293.20498,169.25055c0,-3.09571 2.50957,-5.60528 5.60528,-5.60528c3.09571,0 5.60528,2.50957 5.60528,5.60528c0,3.09571 -2.50957,5.60528 -5.60528,5.60528c-3.09571,0 -5.60528,-2.50957 -5.60528,-5.60528z" fill="#9c9c9c" stroke-opacity="0.21961" stroke="#000000" stroke-width="0" stroke-linecap="butt"/><path d="M321.23137,170.4561c-0.24766,2.16141 -8.02122,5.8816 -9.44203,3.39518c-0.1266,-0.07471 -0.24914,-0.15559 -0.3672,-0.2422c-0.72909,0.53489 -1.62888,0.85079 -2.60245,0.85079c-2.43234,0 -4.40415,-1.97181 -4.40415,-4.40415c0,-2.43234 1.9718,-4.40414 4.40415,-4.40414c0.97357,0 1.87336,0.3159 2.60245,0.85079c0.65109,-0.47766 1.4383,-0.78068 2.29261,-0.84005c3.85454,-2.7791 8.44138,-3.27678 7.51662,4.79379z" fill="#9c9c9c" stroke-opacity="0.21961" stroke="#000000" stroke-width="0" stroke-linecap="butt"/><path d="M347.65625,171.65723c0.6336,2.14181 -4.94015,6.68496 -6.92563,4.90848c-1.95617,-0.41571 -3.43217,-2.1301 -3.48282,-4.19799c-2.0408,2.00825 -10.23145,4.10822 -11.84564,1.28338c-1.29809,-0.76611 -2.1689,-2.17914 -2.1689,-3.79556c0,-1.60405 0.85753,-3.00781 2.13916,-3.77786c0.25503,-0.19421 0.57343,-0.3382 1.00531,-0.44351c0.32788,-0.0977 0.67178,-0.15823 1.0268,-0.17673c-0.1091,-0.38362 -0.1675,-0.78859 -0.1675,-1.20719c0,-1.24533 0.51687,-2.36993 1.34779,-3.17099c0.79201,-0.76355 1.86935,-1.23316 3.05636,-1.23316c0.24741,0 0.49006,0.02041 0.72635,0.05962c6.04683,-0.37938 6.9128,4.26828 5.49037,7.74913c0.43335,0.37895 0.73179,0.82082 0.83951,1.33561c0.57362,-0.51879 1.28449,-0.88864 2.07162,-1.04856c2.49575,-1.47463 5.49084,-1.00494 6.88723,3.71533z" fill="#9c9c9c" stroke-opacity="0.21961" stroke="#000000" stroke-width="0" stroke-linecap="butt"/><path d="M355.96648,191.16398c0,0 -0.1008,0.42857 -1.55703,0.42857c-11.37466,0 -61.86644,0 -68.57143,0c-1.4422,0 -1.79008,-0.71428 -1.79008,-0.71428c0,0 -0.33524,-0.45164 0.1146,-1.61594c1.10693,-2.86498 5.84434,-15.12652 7.49092,-19.38825c0.35525,-0.91948 0.70948,-1.18086 0.70948,-1.18086c0,0 0.25221,-0.28572 0.97508,-0.28572c7.33936,0 48.47057,0 53,0c0.79594,0 1.02775,0.07143 1.02775,0.07143c0,0 0.4981,0.29341 0.74338,0.92825c1.46003,3.7789 6.61629,17.12451 7.74032,20.03377c0.4199,1.0868 0.11701,1.72302 0.11701,1.72302z" fill-opacity="0.22745" fill="#00ffff" stroke-opacity="0.21961" stroke="#000000" stroke-width="2.5" stroke-linecap="round"/><text transform="translate(292.70667,123.2654) scale(0.26934,0.24657)" font-size="40" xml:space="preserve" fill-opacity="0.60392" fill="#000000" fill-rule="nonzero" stroke="none" stroke-width="1" stroke-linecap="butt" stroke-linejoin="miter" stroke-miterlimit="10" stroke-dasharray="" stroke-dashoffset="0" font-family="Pixel" font-weight="normal" text-anchor="start" style="mix-blend-mode: normal"><tspan x="0" dy="0">500 coins</tspan></text><path d="M368.79125,110.51545l-100.52463,141.22484" fill="none" stroke="#ff0000" stroke-width="5.5" stroke-linecap="round"/><path d="M265.81478,108.06363l105.42827,143.1863" fill="none" stroke="#ff0000" stroke-width="5.5" stroke-linecap="round"/><text transform="translate(279.01554,212.7395) scale(0.5,0.5)" font-size="40" xml:space="preserve" fill="#000000" fill-rule="nonzero" stroke="none" stroke-width="1" stroke-linecap="butt" stroke-linejoin="miter" stroke-miterlimit="10" stroke-dasharray="" stroke-dashoffset="0" font-family="Pixel" font-weight="normal" text-anchor="start" style="mix-blend-mode: normal"><tspan x="0" dy="0">brought</tspan></text></g></g></svg>