<svg version="1.1" xmlns="http://www.w3.org/2000/svg" xmlns:xlink="http://www.w3.org/1999/xlink" width="106.44017" height="73.56315" viewBox="0,0,106.44017,73.56315"><g transform="translate(-266.77992,-142.19959)"><g data-paper-data="{&quot;isPaintingLayer&quot;:true}" fill-rule="nonzero" stroke-linejoin="miter" stroke-miterlimit="10" stroke-dasharray="" stroke-dashoffset="0" style="mix-blend-mode: normal"><path d="M269.27992,213.26274c0,0 0,-28.26845 0,-36.6035c0,-4.32389 2.56101,-7.28941 2.56101,-7.28941c0,0 3.29439,-2.56101 8.94364,-2.56101c12.211,0 59.29345,0 80.03149,0c6.08675,0 7.66315,2.88113 7.66315,2.88113c0,0 2.24088,3.30434 2.24088,7.92966c0,8.28603 0,34.69508 0,34.69508" fill="none" stroke="#9a6800" stroke-width="5" stroke-linecap="round"/><path d="M301.93208,152.46179c0,2.78224 -1.54589,3.84698 -4.80871,3.84698c-3.26282,0 -4.90032,-0.0572 -4.90032,-2.83944c0,-1.40308 1.58862,-1.57304 2.67397,-2.48647c0.88859,-0.74785 0.53621,-3.08684 1.38942,-4.00066c0.17116,-0.18333 1.11623,0.62508 1.38649,0.62508c1.73633,0 1.37423,0.54713 2.45515,1.56406c0.4989,0.46937 0.05524,1.45203 0.39134,2.03294c0.3041,0.52559 1.41266,0.63922 1.41266,1.25751z" fill="#ffffff" stroke="#ffffff" stroke-width="5" stroke-linecap="butt"/><path d="M289.35461,154.6801l1.08822,8.39484h12.59225c0,0 0.8951,-3.8653 1.25169,-5.40516c0.26608,-1.14905 0.69696,-3.00971 0.69696,-3.00971c0,0 -1.66998,0.00214 -3.02274,0.00387c-2.76257,0.00355 -12.60638,0.01617 -12.60638,0.01617z" fill="#ffd0e6" stroke="#ffd0e6" stroke-width="3" stroke-linecap="round"/><path d="M293.25601,143.7603c0,-0.86195 0.69875,-1.56071 1.56071,-1.56071c0.86196,0 1.56071,0.69876 1.56071,1.56071c0,0.86195 -0.69876,1.56071 -1.56071,1.56071c-0.86196,0 -1.56071,-0.69876 -1.56071,-1.56071z" fill="#ff0000" stroke="none" stroke-width="0.5" stroke-linecap="butt"/><path d="M302.23228,149.25598c0,-0.86195 0.69875,-1.56071 1.56071,-1.56071c0.86196,0 1.56071,0.69876 1.56071,1.56071c0,0.86195 -0.69876,1.5607 -1.56071,1.5607c-0.86196,0 -1.56071,-0.69875 -1.56071,-1.5607z" fill="#ff0000" stroke="none" stroke-width="0.5" stroke-linecap="butt"/><path d="M291.33252,150.4467c0,-0.86195 0.69875,-1.56071 1.56071,-1.56071c0.86196,0 1.56071,0.69876 1.56071,1.56071c0,0.86195 -0.69875,1.56071 -1.56071,1.56071c-0.86196,0 -1.56071,-0.69876 -1.56071,-1.56071z" fill="#ff0000" stroke="none" stroke-width="0.5" stroke-linecap="butt"/><path d="M289.7872,154.56871l1.0382,8.73824" fill="#947986" stroke="#947986" stroke-width="1" stroke-linecap="round"/><path d="M297.16916,154.54164v8.65172" fill="none" stroke="#947986" stroke-width="1" stroke-linecap="round"/><path d="M303.27389,163.30694l1.03821,-8.73823" data-paper-data="{&quot;index&quot;:null}" fill="none" stroke="#947986" stroke-width="1" stroke-linecap="round"/><g stroke-opacity="0.24314" stroke="#ffffff" stroke-width="1"><path d="M331.65034,164.30883h11.55898" fill="none" stroke-linecap="round"/><path d="M337.42983,154.99742v8.8833" fill="none" stroke-linecap="round"/><path d="M343.95852,147.45197c0,1.56273 -1.27221,2.67921 -2.14868,3.81788c-1.19555,1.5532 -2.29953,2.87135 -4.38001,2.87135c-2.22388,0 -3.01074,-1.24629 -4.1896,-2.98625c-0.73249,-1.08114 -2.33908,-2.28718 -2.33908,-3.70298c0,-1.88716 3.40717,-1.52599 6.74061,-1.48514c3.19219,0.03912 6.31676,-0.32206 6.31676,1.48514z" fill-opacity="0.24314" fill="#ffffff" stroke-linecap="butt"/></g></g></g></svg>