<svg version="1.1" xmlns="http://www.w3.org/2000/svg" xmlns:xlink="http://www.w3.org/1999/xlink" width="77.47085" height="35.23252" viewBox="0,0,77.47085,35.23252"><g transform="translate(-280.57033,-163.25874)"><g data-paper-data="{&quot;isPaintingLayer&quot;:true}" fill-rule="nonzero" stroke-linejoin="miter" stroke-miterlimit="10" stroke-dasharray="" stroke-dashoffset="0" style="mix-blend-mode: normal"><path d="M291.73966,173.17747c0,-3.265 2.64681,-5.91181 5.91181,-5.91181c3.265,0 5.91181,2.64681 5.91181,5.91181c0,3.265 -2.64681,5.91181 -5.91181,5.91181c-3.265,0 -5.91181,-2.64681 -5.91181,-5.91181z" fill="#929292" stroke="none" stroke-width="0.5" stroke-linecap="butt"/><path d="M321.29871,174.44896c-0.2612,2.27961 -8.45987,6.20324 -9.95838,3.58085c-0.13352,-0.0788 -0.26276,-0.1641 -0.38728,-0.25545c-0.76896,0.56414 -1.71796,0.89732 -2.74477,0.89732c-2.56536,0 -4.645,-2.07964 -4.645,-4.645c0,-2.56536 2.07963,-4.64499 4.645,-4.64499c1.02681,0 1.97581,0.33318 2.74477,0.89732c0.6867,-0.50378 1.51696,-0.82337 2.41798,-0.88599c4.06533,-2.93108 8.90301,-3.45597 7.92768,5.05594z" fill="#929292" stroke="none" stroke-width="0.5" stroke-linecap="butt"/><path d="M349.16866,175.71577c0.66825,2.25894 -5.21031,7.05054 -7.30437,5.17691c-2.06315,-0.43844 -3.61986,-2.24659 -3.67328,-4.42756c-2.1524,2.11807 -10.79097,4.33288 -12.49343,1.35356c-1.36908,-0.80801 -2.28751,-2.29831 -2.28751,-4.00312c0,-1.69177 0.90443,-3.1723 2.25614,-3.98446c0.26898,-0.20483 0.60479,-0.35669 1.06029,-0.46776c0.34581,-0.10304 0.70852,-0.16688 1.08295,-0.18639c-0.11507,-0.4046 -0.17666,-0.83171 -0.17666,-1.27321c0,-1.31343 0.54514,-2.49953 1.4215,-3.3444c0.83532,-0.80531 1.97158,-1.3006 3.2235,-1.3006c0.26094,0 0.51686,0.02153 0.76607,0.06288c6.37751,-0.40013 7.29083,4.5017 5.79062,8.1729c0.45705,0.39967 0.77181,0.86571 0.88542,1.40865c0.60499,-0.54716 1.35473,-0.93724 2.18491,-1.1059c2.63223,-1.55527 5.79111,-1.0599 7.26387,3.91851z" fill="#929292" stroke="none" stroke-width="0.5" stroke-linecap="butt"/><path d="M356.29117,196.74126c-11.9967,0 -65.24968,0 -72.32134,0c-1.52107,0 -1.88797,-0.75334 -1.88797,-0.75334c0,0 -0.35357,-0.47634 0.12087,-1.70431c1.16746,-3.02165 6.16394,-15.95373 7.90057,-20.44852c0.37468,-0.96976 0.74828,-1.24544 0.74828,-1.24544c0,0 0.266,-0.30134 1.0284,-0.30134c7.74072,0 51.12124,0 55.89837,0c0.83947,0 1.08395,0.07534 1.08395,0.07534c0,0 0.52534,0.30947 0.78403,0.97902c1.53987,3.98555 6.97811,18.06098 8.16361,21.12934c0.44286,1.14623 0.12341,1.81725 0.12341,1.81725c0,0 -0.10631,0.45201 -1.64218,0.45201z" fill="#00ffff" stroke="#000000" stroke-width="3.5" stroke-linecap="round"/></g></g></svg>