<svg version="1.1" xmlns="http://www.w3.org/2000/svg" xmlns:xlink="http://www.w3.org/1999/xlink" width="45.2754" height="45.38188" viewBox="0,0,45.2754,45.38188"><g transform="translate(-296.64389,-158.62615)"><g data-paper-data="{&quot;isPaintingLayer&quot;:true}" fill-rule="nonzero" stroke-linecap="butt" stroke-linejoin="miter" stroke-miterlimit="10" stroke-dasharray="" stroke-dashoffset="0" style="mix-blend-mode: normal"><path d="M340.16929,181.31709c0,11.56537 -9.35174,20.94094 -20.8877,20.94094c-11.53596,0 -20.8877,-9.37558 -20.8877,-20.94094c0,-11.56537 9.35175,-20.94094 20.8877,-20.94094c11.53596,0 20.8877,9.37558 20.8877,20.94094z" fill="#51ff00" stroke="#000000" stroke-width="3.5"/><path d="M311.27951,166.08672c0.55579,-0.36404 1.35021,-0.56342 2.38328,-0.04689c2.23607,1.11803 1.11803,3.3541 1.11803,3.3541l-1.3986,2.72502c-1.69241,1.72999 -3.6473,3.41644 -4.75675,5.61685c-0.49517,0.98209 -0.40161,2.38807 -1.2895,3.03719c-0.21239,0.15528 -0.43461,0.29184 -0.66464,0.41351l0.07176,0.11276l-2.15132,1.36902c-0.39421,0.25975 -0.86631,0.41091 -1.37371,0.41091c-1.38071,0 -2.5,-1.11929 -2.5,-2.5c0,-0.1348 0.01067,-0.26711 0.03121,-0.39613l0.3908,-2.73559l0.04512,0.00645l-0.01979,-0.15263c1.35866,-4.93641 3.53721,-8.20376 7.88627,-10.9561c0,0 1.11504,-0.68618 2.22784,-0.25847z" fill="#ffffff" stroke="none" stroke-width="0.5"/></g></g></svg>