<svg version="1.1" xmlns="http://www.w3.org/2000/svg" xmlns:xlink="http://www.w3.org/1999/xlink" width="780.51089" height="455.71514" viewBox="0,0,780.51089,455.71514"><g transform="translate(42.56587,14.99474)"><g data-paper-data="{&quot;isPaintingLayer&quot;:true}" fill-rule="nonzero" stroke-linejoin="miter" stroke-miterlimit="10" stroke-dasharray="" stroke-dashoffset="0" style="mix-blend-mode: normal"><path d="M-26.09609,420.6907v-435.43543h731.23123v435.43544z" fill="#00ffff" stroke="#000000" stroke-width="0.5" stroke-linecap="butt"/><path d="M-39.17317,316.70239c3.58704,-3.58704 7.17408,-3.53478 9.83805,-2.61246c2.94938,-3.31947 7.74353,-3.31947 7.74353,-3.31947c3.17505,0.01622 6.37276,0.4277 9.52514,0.04867c4.88501,-0.58736 9.60655,-2.16385 14.46621,-2.93328c8.24445,-1.30535 16.51638,-2.60919 24.84932,-3.09623c4.77088,-0.27885 9.58959,0.62125 14.33689,0.0715c3.34758,-0.38766 6.41584,-2.0924 9.6984,-2.85486c5.84979,-1.35876 11.77892,-2.39423 17.73026,-3.19914c5.31118,-0.71832 9.43634,0.40677 14.91216,-1.20901c4.21975,-1.24514 8.06488,-3.70388 12.37346,-4.59424c10.71322,-2.21386 21.88902,-0.61722 32.77445,-1.70426c4.87315,-0.48665 9.56692,-2.12279 14.39857,-2.92254c8.87491,-1.469 16.79127,-1.63063 25.62585,-1.63063c5.79889,0 11.61554,0.47315 17.39665,0.01933c8.04558,-0.63158 15.96237,-2.6291 24.02402,-3.00301c19.61091,-0.90956 39.54744,-0.01932 59.17993,-0.01932c4.68909,0 9.66131,0.42132 14.30613,0.02515c3.52627,-0.30077 6.98525,-1.18906 10.51051,-1.5015c10.06997,-0.89249 20.63778,-0.02516 30.73892,-0.02516c14.96961,0 29.08302,0.15598 43.99669,1.51178c14.86214,-0.01321 29.73025,-0.12685 44.5919,-0.01027c5.17501,0.04059 10.43162,-0.71684 15.52418,0.20422c3.75085,0.67839 6.75225,3.86845 10.51051,4.5045c4.91683,0.83215 9.97672,-0.40524 14.959,-0.19395c5.33381,0.2262 21.83701,1.84135 28.49622,3.17924c12.24077,2.45926 13.98638,3.58166 25.61292,7.95771c3.70066,1.39287 7.25339,3.25428 11.09052,4.20896c5.59607,1.39229 11.3829,1.85682 17.07227,2.7979c8.67974,1.43573 21.20482,3.87461 30.44055,4.38375c4.72032,0.26022 9.48817,-0.50072 14.18234,0.05962c4.45907,0.53228 8.71415,2.17647 13.08771,3.19559c8.55551,1.9936 17.13764,3.87982 25.65335,6.03707c5.11362,1.29541 10.31816,2.78703 15.59267,2.70443c12.31311,0 25.56684,-1.58084 37.51621,1.95637c2.99734,0.88726 5.40722,3.19527 8.32486,4.31715c0.69168,0.26596 1.46593,-0.26751 2.20698,-0.26751c1.76909,0 3.58188,-0.15194 5.30053,0.26751c1.60582,0.39191 3.08011,1.20651 4.54722,2.03803c2.90882,-2.30554 6.66877,-2.30554 6.66877,-2.30554c2.56202,0 8.25941,-0.11089 9.83284,0.7612c2.69002,1.49095 4.91556,3.45407 6.84769,5.68083c1.3606,0.93428 2.59874,2.31905 3.27994,4.37157c1.32792,2.00786 2.53193,4.10478 3.70365,6.17914c0.86063,1.52362 1.22887,3.33176 2.18492,4.78447c0.91432,0.74837 1.69367,1.65551 2.29593,2.67933c2.7894,2.86341 6.04861,5.34732 8.12086,8.74365c1.19311,1.95547 0.66873,4.541 0.76121,6.82984c0.20204,5.00092 0.3023,10.01915 0,15.01502c-0.12761,2.10888 0.43595,4.45181 -0.56372,6.31307c-7.31696,13.62334 -11.06323,13.50842 -25.16782,19.45824c-9.57244,4.038 -19.36484,6.59332 -29.59318,8.17779c-4.35936,0.6753 -8.82249,0.07493 -13.23384,0.07493c-17.16017,-0.01132 -33.9721,2.27785 -51.10693,2.91946c-28.48096,1.06645 -57.44606,-2.185 -85.77296,1.50557c-6.23281,0.81204 -12.47716,1.61389 -18.63965,2.85123c-3.55201,0.71319 -6.90353,2.24679 -10.4495,2.98945c-17.48176,3.66132 -18.71271,2.9626 -35.72877,4.69869c-9.16787,0.93537 -18.26767,2.75939 -27.47891,3.03832c-7.59045,0.22985 -15.19844,-0.3897 -22.78179,0.01099c-22.04334,1.16472 -44.04075,1.79053 -66.08235,3.00347c-14.83528,0.00374 -30.248,0.97749 -45.04283,-0.07108c-2.05845,-0.14589 -3.94722,-1.36037 -6.00601,-1.50151c-4.95872,-0.33994 -9.94571,-0.15871 -14.91092,0.06756c-6.51896,0.29708 -12.99845,1.25492 -19.51952,1.5015c-20.96303,0.79268 -42.15769,-1.31007 -63.09037,0.00101c-14.83283,0.92903 -29.00701,1.51866 -43.88378,1.50784c-19.61065,-0.01427 -21.71309,0.97206 -41.25759,-3.24851c-13.24112,-2.85938 -16.50899,-5.65893 -28.99554,-9.12633c-4.5403,-1.2608 -9.27621,-1.75126 -13.79544,-3.08557c-8.76253,-2.58716 -14.31995,-6.76069 -20.63632,-12.99403c-6.83004,-6.91916 -14.65404,-11.33399 -22.63338,-16.85909c-12.53678,-8.68079 -24.84686,-17.89922 -36.68105,-27.51178c-3.96335,-3.21931 -10.47589,-9.42489 -15.44838,-12.75224c-1.31932,-0.88283 -3.03067,-1.208 -4.15317,-2.33049c-5.82065,-5.82065 -8.81871,-12.6032 -12.21546,-19.84843l-1.96165,-1.77904c0,0 -7.07107,-7.07106 0,-14.14213zM-12.18111,337.11696c0.46459,0.46459 1.30551,0.30902 1.85284,0.67251c2.42447,1.61009 4.74636,3.37631 7.00597,5.2106c11.80972,9.58684 23.40102,19.24971 35.68536,28.25973c12.0392,8.83022 25.06745,16.00071 35.69901,26.52367c1.25777,1.28071 2.41825,2.66487 3.77333,3.84215c5.75969,5.004 15.19786,5.25551 21.85497,7.10529c9.65726,2.6834 18.23281,6.73883 28.06152,8.89168c17.09596,3.74465 19.3149,2.78943 36.82048,2.75749c14.6507,-0.02673 28.5871,-0.60019 43.20331,-1.49516c20.92592,-1.28132 42.08381,0.80092 63.03576,0.00101c6.52098,-0.24896 12.99852,-1.25308 19.51952,-1.5015c6.03637,-0.22996 12.0941,-0.32445 18.12212,0.06755c2.05926,0.13392 3.94772,1.3532 6.00601,1.5015c4.58591,0.33042 9.1954,-0.06231 13.79318,-0.07492c1.60177,-0.00439 27.3572,0.00362 28.25107,0.00385c22.02823,-1.23631 44.01696,-1.86468 66.04978,-3.00254c7.41121,-0.38274 14.84512,0.21982 22.26326,0.01099c8.90992,-0.25083 17.70758,-2.06445 26.57514,-2.96769c15.50231,-1.57904 17.78303,-1.01709 33.34031,-4.31032c3.58505,-0.7589 6.97768,-2.30044 10.57152,-3.01655c6.74796,-1.34461 13.57666,-2.26393 20.39938,-3.15478c28.95618,-3.78084 58.43649,-0.56312 87.54191,-1.65055c17.3807,-0.64938 34.44233,-2.92263 51.85448,-2.93343c3.59682,0 7.25356,0.73023 10.79018,0.07493c8.58245,-1.59026 16.27763,-3.57642 24.46088,-6.83722c4.89311,-1.94977 10.54245,-3.4867 13.87122,-7.56879c0.13522,-0.16583 -0.51992,0.51651 -0.56372,0.30707c-1.01278,-4.84355 -0.35503,-9.90553 -0.01168,-14.84526c-0.82935,-0.68795 -1.68038,-1.35575 -2.52182,-2.03317c-1.05093,-0.61215 -1.98013,-1.41042 -2.74243,-2.34962c-0.65232,-0.6149 -1.27355,-1.25974 -1.84551,-1.95187c-1.63415,-1.97755 -2.25751,-4.61185 -3.53968,-6.83384c-0.48501,-0.84052 -1.04049,-1.6469 -1.59168,-2.4549c-3.12883,0.12979 -6.65761,0.34228 -9.37906,-0.20101c-2.30768,-0.46069 -4.52878,-1.30026 -6.72951,-2.13358c-1.59982,-0.60578 -2.83399,-2.0319 -4.4767,-2.5093c-2.40307,-0.69838 -5.11098,0.72053 -7.50751,0c-3.43765,-1.03355 -6.27571,-3.59337 -9.69315,-4.69186c-2.63621,-0.84737 -5.47264,-0.9237 -8.23772,-1.0718c-7.66784,-0.4107 -15.61074,0.02516 -23.31513,0.02516c-6.90238,-0.07155 -13.74196,-1.6466 -20.44338,-3.30158c-8.44336,-2.08516 -16.93656,-3.96314 -25.3977,-5.97494c-3.6618,-0.87066 -7.19736,-2.37793 -10.93632,-2.81042c-4.25325,-0.49198 -8.56977,0.29892 -12.84468,0.05962c-10.31304,-0.57732 -22.65912,-2.953 -32.62252,-4.62526c-6.32263,-1.06119 -12.74568,-1.64698 -18.96377,-3.2081c-12.16883,-3.05512 -22.92823,-9.38254 -35.36863,-11.85737c-5.92422,-1.17853 -21.09375,-2.61093 -25.55784,-2.82676c-6.01799,-0.29095 -12.12878,0.78327 -18.07403,-0.19395c-3.76123,-0.61824 -6.76952,-3.77371 -10.51051,-4.5045c-3.76374,-0.73525 -7.66813,0.16865 -11.50286,0.20423c-3.50335,0.0325 -7.007,0 -10.51051,0c-11.66258,0 -23.32511,-0.00066 -34.98768,-0.01027c-14.65675,-1.33243 -28.37853,-1.49123 -43.0904,-1.49123c-9.59899,0 -19.75952,-0.91815 -29.32114,-0.02515c-3.52374,0.32909 -6.98314,1.21394 -10.51051,1.5015c-5.11498,0.41699 -10.55699,0.02516 -15.72391,0.02516c-19.22755,0 -38.72802,-0.83782 -57.93718,-0.01932c-8.06301,0.34357 -15.97769,2.38115 -24.02402,3.003c-0.28967,0.02238 -15.24231,0.01932 -18.6394,0.01932c-7.77341,0 -14.61116,0.06136 -22.4222,1.37238c-5.23763,0.87909 -10.34699,2.55435 -15.63146,3.08346c-14.30402,1.43223 -16.25986,-1.71789 -30.28862,1.29874c-4.06018,0.87307 -7.64883,3.30419 -11.65056,4.41477c-3.50894,0.97382 -7.15599,1.39459 -10.77394,1.80858c-2.4331,0.27841 -4.92634,-0.38644 -7.34694,-0.01459c-5.12589,0.78742 -10.24797,1.64767 -15.30278,2.80687c-3.81852,0.87569 -7.43256,2.68711 -11.32262,3.15114c-5.19427,0.61962 -10.47118,-0.23762 -15.69314,0.0715c-7.77988,0.46053 -15.50009,1.69749 -23.19873,2.90978c-5.22372,0.82256 -10.31057,2.46675 -15.56382,3.07272c-2.07639,0.23951 -4.16777,0.22739 -6.26188,0.16952c1.22067,2.40017 2.58366,4.63283 4.17648,6.22565z" fill="#40ff46" stroke="#40ff46" stroke-width="0.5" stroke-linecap="butt"/><path d="M-19.58215,330.89767c2.09411,0.05787 4.18551,0.06989 6.2619,-0.16962c5.25325,-0.60597 10.34016,-2.25079 15.56388,-3.07335c7.69864,-1.21229 15.41893,-2.45003 23.19881,-2.91056c5.22196,-0.30912 10.4989,0.54782 15.69318,-0.0718c3.89007,-0.46404 7.50419,-2.2762 11.32271,-3.15189c5.05481,-1.1592 10.177,-2.02029 15.3029,-2.80771c2.42059,-0.37185 4.91386,0.29281 7.34696,0.0144c3.61795,-0.41399 7.26511,-0.83541 10.77405,-1.80923c4.00174,-1.11058 7.5906,-3.54291 11.65079,-4.41598c14.02876,-3.01664 15.98492,0.13196 30.28894,-1.30027c5.28447,-0.52912 10.39419,-2.20586 15.63182,-3.08495c7.81104,-1.31101 14.64928,-1.37415 22.4227,-1.37415c3.39709,0 18.3502,0.00158 18.63987,-0.02081c8.04633,-0.62185 15.96222,-2.66269 24.02523,-3.00626c19.20916,-0.8185 38.71502,0.00954 57.94257,0.00954c5.16692,0 10.61216,0.38772 15.72715,-0.02926c3.52737,-0.28756 6.99025,-1.176 10.51399,-1.50509c9.56162,-0.893 19.73629,0.01588 29.33528,0.01588c14.71187,0 28.46812,0.15679 43.12487,1.48922c11.66257,0.00961 23.34431,0.02119 35.00688,0.02119c3.50351,0 7.01038,0.03573 10.51373,0.00322c3.83472,-0.03557 7.74171,-0.93637 11.50546,-0.20112c3.74099,0.7308 6.75214,3.89036 10.51337,4.5086c5.94525,0.97722 12.05812,-0.09334 18.07612,0.19762c4.46409,0.21583 19.63572,1.65293 25.55994,2.83146c12.4404,2.47482 23.20191,8.80904 35.37074,11.86416c6.2181,1.56112 12.64155,2.14886 18.96418,3.21005c9.9634,1.67226 22.30988,4.05036 32.62292,4.62768c4.27491,0.23931 8.59148,-0.55123 12.84473,-0.05925c3.73896,0.43249 7.27463,1.94063 10.93643,2.81129c8.46114,2.0118 16.9545,3.89144 25.39786,5.9766c6.70142,1.65497 13.54106,3.23089 20.44344,3.30244c7.70439,0 15.64731,-0.43562 23.31515,-0.02492c2.76509,0.1481 5.60153,0.22467 8.23773,1.07204c3.41745,1.0985 6.25555,3.65911 9.6932,4.69266c2.39653,0.72053 5.10443,-0.69833 7.50751,0.00005c1.6427,0.4774 2.8769,1.90393 4.47672,2.5097c2.20073,0.83332 4.42185,1.67323 6.72953,2.13392c2.72145,0.54329 6.25023,0.33086 9.37905,0.20107c0.55119,0.808 1.10667,1.61472 1.59169,2.45524c1.28218,2.22199 1.90554,4.85725 3.53969,6.8348c0.57195,0.69214 1.19319,1.33724 1.84551,1.95214c0.7623,0.9392 1.69149,1.73778 2.74242,2.34994c0.84144,0.67741 1.69246,1.34548 2.52182,2.03344c-0.34335,4.93974 -1.00119,10.00373 0.01159,14.84728c0.0438,0.20945 0.69894,-0.47294 0.56372,-0.30711c-3.32877,4.08209 -8.97819,5.62019 -13.8713,7.56997c-8.18325,3.26081 -15.87856,5.24831 -24.46101,6.83856c-3.53661,0.6553 -7.19339,-0.07475 -10.7902,-0.07475c-17.41215,0.0108 -34.474,2.28568 -51.85469,2.93506c-29.10542,1.08743 -58.58646,-2.1264 -87.54264,1.65444c-6.82272,0.89085 -13.65199,1.81242 -20.39996,3.15704c-3.59384,0.71612 -6.98701,2.25943 -10.57206,3.01833c-15.55728,3.29323 -17.84004,2.73659 -33.34235,4.31563c-8.86756,0.90323 -17.66834,2.72269 -26.57826,2.97352c-7.41814,0.20884 -14.85609,-0.38815 -22.26729,-0.0054c-22.03283,1.13786 -44.06034,1.7842 -66.08857,3.02052c-0.89387,-0.00023 -26.67118,-0.01347 -28.27295,-0.00907c-4.59778,0.01261 -9.21463,0.40086 -13.80054,0.07043c-2.05828,-0.1483 -3.94976,-1.36999 -6.00903,-1.5039c-6.02801,-0.392 -12.09132,-0.30315 -18.12769,-0.07319c-6.521,0.24842 -13.00187,1.24813 -19.52285,1.49709c-20.95195,0.79991 -42.11493,-1.29212 -63.04085,-0.01081c-14.61621,0.89497 -28.55376,1.4651 -43.20446,1.49183c-17.50558,0.03194 -19.7253,0.98441 -36.82125,-2.76024c-9.82871,-2.15285 -18.40488,-6.21115 -28.06214,-8.89455c-6.65711,-1.84978 -16.0956,-2.1032 -21.85528,-7.1072c-1.35507,-1.17728 -2.51566,-2.56219 -3.77343,-3.8429c-10.63157,-10.52296 -23.6602,-17.69828 -35.6994,-26.52851c-12.28433,-9.01002 -23.87559,-18.67704 -35.68531,-28.26388c-2.25961,-1.83429 -4.58146,-3.60117 -7.00593,-5.21126c-0.54734,-0.36349 -1.38824,-0.208 -1.85283,-0.67259c-1.59282,-1.59282 -2.95575,-3.82628 -4.17642,-6.22645z" data-paper-data="{&quot;noHover&quot;:false,&quot;origItem&quot;:[&quot;Path&quot;,{&quot;applyMatrix&quot;:true,&quot;segments&quot;:[[[-30.36823,792.99332],[-3.18564,-3.18564],[0.92919,0.92919]],[[-26.66255,794.33834],[-1.09467,-0.72697],[4.84894,3.22017]],[[-12.65062,804.75953],[-4.51921,-3.66858],[23.61944,19.17367]],[[58.72009,861.279],[-24.56867,-18.02004],[24.0784,17.66045]],[[130.11811,914.32634],[-21.26313,-21.04591],[2.51555,2.56143]],[[137.66476,922.01064],[-2.71015,-2.35457],[11.51937,10.008]],[[181.37471,936.22121],[-13.31422,-3.69955],[19.31452,5.36681]],[[237.49775,954.00458],[-19.65742,-4.30571],[34.19191,7.4893]],[[311.13872,959.51956],[-35.01117,0.06388],[29.3014,-0.05346]],[[397.54533,956.52924],[-29.23242,1.78994],[41.85184,-2.56264]],[[523.61685,956.53126],[-41.90391,1.59982],[13.04195,-0.49792]],[[562.65589,953.52826],[-13.042,0.49683],[12.07274,-0.45991]],[[598.90012,953.66337],[-12.05603,-0.78401],[4.11853,0.26783]],[[610.91213,956.66637],[-4.11656,-0.29661],[9.17181,0.66085]],[[638.4985,956.51653],[-9.19556,0.02523],[3.20355,-0.00879]],[[695.00064,956.52423],[-1.78774,-0.00047],[44.05646,-2.47263]],[[827.10021,950.51915],[-44.06565,2.27573],[14.82242,-0.76549]],[[871.62673,950.54112],[-14.83629,0.41767],[17.81983,-0.50166]],[[924.77701,944.60575],[-17.73512,1.80647],[31.00462,-3.15808]],[[991.45762,935.98511],[-31.11456,6.58645],[7.1701,-1.5178]],[[1012.60066,929.952],[-7.18768,1.43223],[13.49593,-2.68923]],[[1053.39942,923.64244],[-13.64543,1.7817],[57.91235,-7.56167]],[[1228.48323,920.34134],[-58.21084,2.17486],[34.76139,-1.29875]],[[1332.19219,914.47448],[-34.8243,0.0216],[7.19363,0]],[[1353.77255,914.62433],[-7.07323,1.31061],[17.16491,-3.18051]],[[1402.6943,900.94988],[-16.36649,6.52161],[9.78622,-3.89955]],[[1430.43674,885.8123],[-6.65755,8.16417],[0.27045,-0.33166]],[[1429.30931,886.42644],[0.08759,0.41889],[-2.02556,-9.68711]],[[1429.28596,856.73591],[-0.68671,9.87948],[-1.65871,-1.37591]],[[1424.24232,852.66957],[1.68288,1.35483],[-2.10186,-1.22431]],[[1418.75746,847.97034],[1.5246,1.8784],[-1.30463,-1.2298]],[[1415.06645,844.06659],[1.1439,1.38427],[-3.26831,-3.95511]],[[1407.98708,830.39891],[2.56435,4.44397],[-0.97003,-1.68104]],[[1404.80372,825.48912],[1.10238,1.616],[-6.25766,0.25957]],[[1386.0456,825.0871],[5.4429,1.08658],[-4.61536,-0.92138]],[[1372.58657,820.81994],[4.40146,1.66663],[-3.19964,-1.21156]],[[1363.63317,815.80133],[3.28541,0.9548],[-4.80615,-1.39676]],[[1348.61815,815.80133],[4.79306,1.44106],[-6.8753,-2.0671]],[[1329.23184,806.41761],[6.8349,2.19699],[-5.27242,-1.69475]],[[1312.75639,804.27402],[5.53018,0.2962],[-15.33568,-0.8214]],[[1266.12613,804.32433],[15.40878,0],[-13.80476,-0.1431]],[[1225.23938,797.72118],[13.40284,3.30995],[-16.88671,-4.17032]],[[1174.44398,785.7713],[16.92227,4.0236],[-7.3236,-1.74133]],[[1152.57135,780.15046],[7.47791,0.86498],[-8.5065,-0.98396]],[[1126.88198,780.2697],[8.54983,0.47861],[-20.62608,-1.15464]],[[1061.63695,771.01918],[19.9268,3.34451],[-12.64527,-2.12238]],[[1023.70941,764.60298],[12.43619,3.12224],[-24.33766,-6.11023]],[[952.97214,740.88825],[24.8808,4.94964],[-11.84845,-2.35706]],[[901.85647,735.23472],[8.92818,0.43166],[-12.03599,-0.58191]],[[865.70841,734.84682],[11.89049,1.95445],[-7.52245,-1.23647]],[[844.68739,725.83781],[7.48197,1.46159],[-7.52749,-1.47049]],[[821.68168,726.24626],[7.66945,-0.07115],[-7.00671,0.065]],[[800.66066,726.24626],[7.00701,0],[-23.32515,0]],[[730.6853,726.22571],[23.32514,0.01922],[-29.3135,-2.66486]],[[644.5045,723.24325],[29.42374,0],[-19.19798,0]],[[585.86222,723.19294],[19.12325,-1.786],[-7.04748,0.65819]],[[564.8412,726.19594],[7.05474,-0.57512],[-10.22997,0.83397]],[[533.39339,726.24626],[10.33383,0],[-38.4551,0]],[[417.51903,726.20761],[38.41832,-1.637],[-16.12602,0.68713]],[[369.47098,732.21361],[16.09267,-1.24369],[-0.57933,0.04477]],[[332.19219,732.25226],[6.79417,0],[-15.54683,0]],[[287.34779,734.99701],[15.62208,-2.62203],[-10.47526,1.75818]],[[256.08487,741.16394],[10.56894,-1.05824],[-28.60804,2.86446]],[[195.50763,743.76143],[28.05753,-6.03328],[-8.12036,1.74614]],[[172.2065,752.59097],[8.00348,-2.22116],[-7.01788,1.94764]],[[150.65862,756.20814],[7.23591,-0.82799],[-4.86621,0.55683]],[[135.96475,756.17895],[4.84118,-0.74369],[-10.25179,1.57485]],[[105.3592,761.79269],[10.10961,-2.3184],[-7.63704,1.75138]],[[82.71396,768.09498],[7.78013,-0.92807],[-10.38855,1.23923]],[[51.32769,768.23798],[10.44392,-0.61823],[-15.55977,0.92106]],[[4.93022,774.05753],[15.39728,-2.42457],[-10.44743,1.64513]],[[-26.19742,780.20298],[10.50649,-1.21194],[-4.15277,0.47903]],[[-38.72119,780.54203],[4.18823,0.11574],[2.44133,4.80035]]],&quot;closed&quot;:true}]}" fill="#40ff46" stroke="none" stroke-width="0.5" stroke-linecap="butt"/><path d="M347.8062,169.77403c0,17.19967 -13.94308,31.14275 -31.14275,31.14275c-17.19966,0 -31.14275,-13.94308 -31.14275,-31.14275c0,-17.19967 13.94309,-31.14275 31.14275,-31.14275c17.19966,0 31.14275,13.94308 31.14275,31.14275z" fill="#7b7b7b" stroke="#000000" stroke-width="7" stroke-linecap="butt"/><path d="M315.87793,290.00388c0,0 0,-73.50872 0,-81.44244c0,-1.35768 0.70664,-0.68909 0.70664,-0.68909c0,0 0.23244,-0.75687 1.74813,0.75883c5.47168,5.47168 18.45792,20.45792 21.90598,23.90598c1.63788,1.63789 1.81609,1.07679 1.81609,1.07679c0,0 1.50333,-0.44279 0.79275,-2.86974c-1.69824,-5.80022 -9.38537,-31.49342 -9.38537,-31.49342" fill="none" stroke="#000000" stroke-width="9.5" stroke-linecap="round"/><path d="M315.9452,233.39222c0,0 -19.05312,0 -23.26462,0c-1.56986,0 -1.67795,-0.42399 -1.67795,-0.42399c0,0 -0.43086,-0.78459 0.72771,-2.03059c3.69791,-3.977 23.25133,-25.00614 23.25133,-25.00614" fill="none" stroke="#000000" stroke-width="9.5" stroke-linecap="round"/><path d="M185.27881,360v-119.05068h262.76925v119.05068z" fill="#8e6800" stroke="#000000" stroke-width="5.5" stroke-linecap="butt"/><path d="M300.37502,165.7h11" fill="none" stroke="#000000" stroke-width="6.5" stroke-linecap="round"/><path d="M321.12502,165.7h11" fill="none" stroke="#000000" stroke-width="6.5" stroke-linecap="round"/><path d="M308.93264,183.59161h15.46158" fill="none" stroke="#000000" stroke-width="2.5" stroke-linecap="round"/><path d="M185.52502,240.72733v-126.8864h22v126.88641z" fill="#8e6800" stroke="#000000" stroke-width="6" stroke-linecap="butt"/><path d="M422.71252,240.12733v-129.08641h22v129.08641z" fill="#8e6800" stroke="#000000" stroke-width="6" stroke-linecap="butt"/><path d="M180.0313,111.0458v-39.03904h268.76426v39.03904z" fill="#8e6800" stroke="#000000" stroke-width="7" stroke-linecap="butt"/><path d="M187.71089,125.62308v-10.66666h17.62825v10.66666z" fill-opacity="0.51765" fill="#232323" stroke="none" stroke-width="0" stroke-linecap="butt"/><path d="M424.8984,124.12308v-10.66666h17.62824v10.66666z" fill-opacity="0.51765" fill="#232323" stroke="none" stroke-width="0" stroke-linecap="butt"/><path d="M321.21251,293.9h31.5" fill="none" stroke="#543d00" stroke-width="4.5" stroke-linecap="round"/><path d="M261.71252,262.9h-39" fill="none" stroke="#543d00" stroke-width="4.5" stroke-linecap="round"/><path d="M233.21252,326.9h-23" fill="none" stroke="#543d00" stroke-width="4.5" stroke-linecap="round"/><path d="M237.71252,295.4h-20.5" fill="none" stroke="#543d00" stroke-width="4.5" stroke-linecap="round"/><path d="M379.71252,275.9h19.5" fill="none" stroke="#543d00" stroke-width="4.5" stroke-linecap="round"/><path d="M368.21252,318.9h42" fill="none" stroke="#543d00" stroke-width="4.5" stroke-linecap="round"/><path d="M297.71251,343.4h18" fill="none" stroke="#543d00" stroke-width="4.5" stroke-linecap="round"/><path d="M433.71252,195.4v-30" fill="none" stroke="#543d00" stroke-width="4.5" stroke-linecap="round"/><path d="M319.71252,93.4h23.5" fill="none" stroke="#543d00" stroke-width="4.5" stroke-linecap="round"/><path d="M222.71252,91.9h-15" fill="none" stroke="#543d00" stroke-width="4.5" stroke-linecap="round"/><path d="M210.71252,105.9h21.5" fill="none" stroke="#543d00" stroke-width="4.5" stroke-linecap="round"/><path d="M380.21252,104.9h25.5" fill="none" stroke="#543d00" stroke-width="4.5" stroke-linecap="round"/><path d="M400.21252,88.4h24.5" fill="none" stroke="#543d00" stroke-width="4.5" stroke-linecap="round"/><path d="M192.71252,140.9v17" fill="none" stroke="#543d00" stroke-width="4.5" stroke-linecap="round"/><path d="M201.21252,173.9v14" fill="none" stroke="#543d00" stroke-width="4.5" stroke-linecap="round"/><path d="M193.71252,211.4v-9.5" fill="none" stroke="#543d00" stroke-width="4.5" stroke-linecap="round"/><path d="M198.21252,213.9v9.5" fill="none" stroke="#543d00" stroke-width="4.5" stroke-linecap="round"/><path d="M429.56966,150.04286v12" fill="none" stroke="#543d00" stroke-width="6" stroke-linecap="round"/><path d="M436.71252,219.9v-8" fill="none" stroke="#543d00" stroke-width="6" stroke-linecap="round"/><path d="M436.71252,147.11429v-15.5" fill="none" stroke="#543d00" stroke-width="6" stroke-linecap="round"/><text transform="translate(257.21251,99.16875) scale(0.5,0.5)" font-size="40" xml:space="preserve" fill="#ff5959" fill-rule="nonzero" stroke="none" stroke-width="1" stroke-linecap="butt" stroke-linejoin="miter" stroke-miterlimit="10" stroke-dasharray="" stroke-dashoffset="0" font-family="Pixel" font-weight="normal" text-anchor="start" style="mix-blend-mode: normal"><tspan x="0" dy="0">seed shop :)</tspan></text></g></g></svg>