<svg version="1.1" xmlns="http://www.w3.org/2000/svg" xmlns:xlink="http://www.w3.org/1999/xlink" width="120.99999" height="168.55627" viewBox="0,0,120.99999,168.55627"><g transform="translate(-259.50002,-101.16669)"><g data-paper-data="{&quot;isPaintingLayer&quot;:true}" fill-rule="nonzero" stroke-linejoin="miter" stroke-miterlimit="10" stroke-dasharray="" stroke-dashoffset="0" style="mix-blend-mode: normal"><path d="M265.00002,251.66671c0,0 -3,-4.6888 -3,-13.56667c0,-17.27008 0,-78.39827 0,-111.66667c0,-13.05358 4.33333,-17.76667 4.33333,-17.76667c0,0 5.20958,-4.41991 18.33082,-4.53066c23.28986,-0.19658 57.85336,-0.46934 70.33584,-0.46934c8.2717,0 15.66667,2.33333 15.66667,2.33333c0,0 7.33333,6.6 7.33333,19.1c0,33.22954 0,96.37562 0,113.66667c0,8.60171 -5.33333,13.9 -5.33333,13.9c0,0 -3.64575,3.66667 -16.33333,3.66667c-25.51067,0 -66.01417,0 -78.66667,0c-7.48623,0 -12.66667,-4.66667 -12.66667,-4.66667z" fill="#9c9c9c" stroke="#000000" stroke-width="5" stroke-linecap="butt"/><path d="M275.36311,197.18235c0,0 -2.01621,-1.90689 -2.01621,-6.6446c0,-9.21626 0,-41.83763 0,-59.59148c0,-6.96611 3.48558,-9.48127 3.48558,-9.48127c0,0 4.1904,-2.35871 14.74465,-2.41781c18.73352,-0.10491 46.53516,-0.25047 56.57562,-0.25047c6.65346,0 12.6017,1.24519 12.6017,1.24519c0,0 5.89867,3.52213 5.89867,10.19281c0,17.73311 0,51.43133 0,60.65879c0,4.59035 -4.28994,7.4178 -4.28994,7.4178c0,0 -2.93251,1.95674 -13.13794,1.95674c-20.51986,0 -53.09941,0 -63.27663,0c-6.02166,0 -10.18862,-2.4904 -10.18862,-2.4904z" fill="#9c9c9c" stroke="#000000" stroke-width="5" stroke-linecap="butt"/><path d="M275.36311,246.26434c0,0 -2.01621,-1.25219 -2.01621,-3.62311c0,-4.61214 0,-20.93703 0,-29.82167c0,-3.48609 3.48558,-4.74476 3.48558,-4.74476c0,0 4.1904,-1.18038 14.74465,-1.20996c18.73352,-0.0525 46.53516,-0.12535 56.57562,-0.12535c6.65346,0 12.6017,0.62314 12.6017,0.62314c0,0 5.89867,1.76259 5.89867,5.10084c0,8.87427 0,25.73804 0,30.35579c0,2.29717 -4.28994,3.71213 -4.28994,3.71213c0,0 -2.93251,0.97922 -13.13794,0.97922c-20.51986,0 -53.09941,0 -63.27663,0c-6.02166,0 -10.18862,-1.24628 -10.18862,-1.24628z" fill="#9c9c9c" stroke="#000000" stroke-width="5" stroke-linecap="butt"/><text transform="translate(280.36316,235.77307) scale(0.72067,0.72067)" font-size="40" xml:space="preserve" fill="#000000" fill-rule="nonzero" stroke="#000000" stroke-width="1" stroke-linecap="butt" stroke-linejoin="miter" stroke-miterlimit="10" stroke-dasharray="" stroke-dashoffset="0" font-family="Pixel" font-weight="normal" text-anchor="start" style="mix-blend-mode: normal"><tspan x="0" dy="0">table</tspan></text><path d="M290.76085,126.01442c0,0 -1.58523,-0.46756 -1.58523,-1.35285c0,-1.72214 0,-7.81775 0,-11.13522c0,-1.30168 2.28978,-1.77166 2.28978,-1.77166c0,0 2.75279,-0.44075 9.68618,-0.45179c12.30658,-0.0196 30.57027,-0.0468 37.16613,-0.0468c4.37085,0 8.27841,0.23268 8.27841,0.23268c0,0 3.875,0.65814 3.875,1.90462c0,3.3136 0,9.61042 0,11.33466c0,0.85775 -2.81818,1.38609 -2.81818,1.38609c0,0 -1.92645,0.36564 -8.63069,0.36564c-13.48008,0 -34.88251,0 -41.56821,0c-3.9558,0 -6.69319,-0.46535 -6.69319,-0.46535z" fill="#9c9c9c" stroke="#000000" stroke-width="3" stroke-linecap="butt"/><text transform="translate(292.00167,122.08514) scale(0.29286,0.2681)" font-size="40" xml:space="preserve" fill="#000000" fill-rule="nonzero" stroke="none" stroke-width="1" stroke-linecap="butt" stroke-linejoin="miter" stroke-miterlimit="10" stroke-dasharray="" stroke-dashoffset="0" font-family="Pixel" font-weight="normal" text-anchor="start" style="mix-blend-mode: normal"><tspan x="0" dy="0">250 coins</tspan></text><path d="M285.4534,188.83807c0,0 0,-19.15583 0,-24.80399c0,-2.93004 1.73544,-4.93959 1.73544,-4.93959c0,0 2.23241,-1.73544 6.06057,-1.73544c8.27466,0 40.17962,0 54.23255,0c4.12462,0 5.19286,1.95237 5.19286,1.95237c0,0 1.51851,2.23916 1.51851,5.37346c0,5.61495 0,23.51077 0,23.51077" fill="none" stroke="#9a6800" stroke-width="5" stroke-linecap="round"/><path d="M302.63808,146.74665c0,1.78268 -0.99051,2.46489 -3.08111,2.46489c-2.0906,0 -3.1398,-0.03665 -3.1398,-1.81933c0,-0.899 1.01788,-1.0079 1.7133,-1.59317c0.56935,-0.47917 0.34357,-1.97784 0.89025,-2.56336c0.10967,-0.11747 0.71521,0.40051 0.88837,0.40051c1.11253,0 0.88052,0.35056 1.5731,1.00215c0.31966,0.30074 0.03539,0.93036 0.25074,1.30257c0.19484,0.33677 0.90515,0.40958 0.90515,0.80574z" fill="#ffffff" stroke="#ffffff" stroke-width="5" stroke-linecap="butt"/><path d="M302.65661,148.15765c0.86676,-0.00111 1.93677,-0.00248 1.93677,-0.00248c0,0 -0.27608,1.19219 -0.44657,1.92842c-0.22848,0.98664 -0.802,3.46327 -0.802,3.46327h-8.06829l-0.69726,-5.37886c0,0 6.30727,-0.00808 8.07735,-0.01035z" fill="#ffd0e6" stroke="#ffd0e6" stroke-width="3" stroke-linecap="round"/><path d="M297.07902,141.17129c0,-0.55229 0.44772,-1 1,-1c0.55228,0 1,0.44771 1,1c0,0.55229 -0.44772,1 -1,1c-0.55228,0 -1,-0.44771 -1,-1z" fill="#ff0000" stroke="none" stroke-width="0.5" stroke-linecap="butt"/><path d="M302.83043,144.69257c0,-0.55229 0.44772,-1 1,-1c0.55228,0 1,0.44771 1,1c0,0.55229 -0.44772,1 -1,1c-0.55228,0 -1,-0.44771 -1,-1z" fill="#ff0000" stroke="none" stroke-width="0.5" stroke-linecap="butt"/><path d="M295.84657,145.45552c0,-0.55229 0.44772,-1 1,-1c0.55228,0 1,0.44771 1,1c0,0.55229 -0.44772,1 -1,1c-0.55228,0 -1,-0.44771 -1,-1z" fill="#ff0000" stroke="none" stroke-width="0.5" stroke-linecap="butt"/><path d="M294.85643,148.09664l0.66521,5.59889" fill="none" stroke-opacity="0.24314" stroke="#ffffff" stroke-width="1" stroke-linecap="round"/><path d="M299.58631,153.62273v-5.54345" fill="none" stroke="#947986" stroke-width="1" stroke-linecap="round"/><path d="M303.49782,153.69552l0.66521,-5.59888" data-paper-data="{&quot;index&quot;:null}" fill="none" stroke="#947986" stroke-width="1" stroke-linecap="round"/><path d="M325.87097,154.70213h7.69269" fill="none" stroke-opacity="0.24314" stroke="#ffffff" stroke-width="1" stroke-linecap="round"/><path d="M329.71732,148.50524v5.91197" fill="none" stroke-opacity="0.24314" stroke="#ffffff" stroke-width="1" stroke-linecap="round"/><path d="M334.06226,143.48361c0,1.04002 -0.84668,1.78306 -1.42998,2.54086c-0.79565,1.03368 -1.53038,1.91093 -2.91497,1.91093c-1.48002,0 -2.0037,-0.82942 -2.78825,-1.9874c-0.48748,-0.71952 -1.5567,-1.52215 -1.5567,-2.46439c0,-1.25593 2.26753,-1.01557 4.48599,-0.98838c2.12446,0.02603 4.2039,-0.21434 4.2039,0.98838z" fill-opacity="0.24314" fill="#ffffff" stroke-opacity="0.24314" stroke="#ffffff" stroke-width="1" stroke-linecap="butt"/></g></g></svg>