<svg version="1.1" xmlns="http://www.w3.org/2000/svg" xmlns:xlink="http://www.w3.org/1999/xlink" width="144.0094" height="93.06698" viewBox="0,0,144.0094,93.06698"><g transform="translate(-248.54836,-133.24982)"><g data-paper-data="{&quot;isPaintingLayer&quot;:true}" fill-rule="nonzero" stroke-linejoin="miter" stroke-miterlimit="10" stroke-dasharray="" stroke-dashoffset="0" style="mix-blend-mode: normal"><path d="M250.6465,179.84238l73.7669,-44.13405l64.94009,56.11329l-44.13405,32.47005l-91.10528,-3.46767z" fill="#a9a9a9" stroke="#000000" stroke-width="4" stroke-linecap="round"/><path d="M307.22939,174.22627c0,3.18874 -2.80655,5.77372 -6.26861,5.77372c-3.46206,0 -6.26861,-2.58498 -6.26861,-5.77372c0,-3.18874 2.80655,-5.77372 6.26861,-5.77372c3.46206,0 6.26861,2.58498 6.26861,5.77372z" fill="#000000" stroke="#ffffff" stroke-width="4.5" stroke-linecap="butt"/><path d="M326.26861,173.39294c0,3.18874 -2.80656,5.77372 -6.26862,5.77372c-3.46206,0 -6.26861,-2.58498 -6.26861,-5.77372c0,-3.18874 2.80655,-5.77372 6.26861,-5.77372c3.46206,0 6.26862,2.58498 6.26862,5.77372z" fill="#000000" stroke="#ffffff" stroke-width="4.5" stroke-linecap="butt"/></g></g></svg>