<svg version="1.1" xmlns="http://www.w3.org/2000/svg" xmlns:xlink="http://www.w3.org/1999/xlink" width="84.25" height="39.30625" viewBox="0,0,84.25,39.30625"><g transform="translate(-277.875,-160.31875)"><g data-paper-data="{&quot;isPaintingLayer&quot;:true}" fill-rule="nonzero" stroke-linecap="butt" stroke-linejoin="miter" stroke-miterlimit="10" stroke-dasharray="" stroke-dashoffset="0" style="mix-blend-mode: normal"><path d="M282.125,194.875c0,0 -1.5,-1.69067 -1.5,-4.65833c0,-4.32725 0,-16.55505 0,-23c0,-2.47079 1.83333,-3.25833 1.83333,-3.25833c0,0 0.99114,-0.83334 4.04167,-0.83334c8.13347,0 45.71713,0 63.5,0c5.70728,0 7.20833,1.33334 7.20833,1.33334c0,0 2.16667,1.67967 2.16667,4.25833c0,3.83165 0,14.93491 0,22c0,3.6048 -1,4.49167 -1,4.49167c0,0 -0.88089,1.66666 -4.04167,1.66666c-14.77377,0 -57.50931,0 -66.83333,0c-3.50066,0 -5.375,-2 -5.375,-2z" fill-opacity="0.52549" fill="#787878" stroke="#000000" stroke-width="5.5"/><text transform="translate(295.21001,185.76875) scale(0.5,0.5)" font-size="40" xml:space="preserve" fill="#000000" fill-rule="nonzero" stroke="none" stroke-width="1" stroke-linecap="butt" stroke-linejoin="miter" stroke-miterlimit="10" stroke-dasharray="" stroke-dashoffset="0" font-family="Pixel" font-weight="normal" text-anchor="start" style="mix-blend-mode: normal"><tspan x="0" dy="0">plant</tspan></text></g></g></svg>