<svg version="1.1" xmlns="http://www.w3.org/2000/svg" xmlns:xlink="http://www.w3.org/1999/xlink" width="6.0439" height="7.20003" viewBox="0,0,6.0439,7.20003"><g transform="translate(-316.97805,-207.28849)"><g data-paper-data="{&quot;isPaintingLayer&quot;:true}" fill="#6f6143" fill-rule="nonzero" stroke="none" stroke-width="0.5" stroke-linecap="butt" stroke-linejoin="miter" stroke-miterlimit="10" stroke-dasharray="" stroke-dashoffset="0" style="mix-blend-mode: normal"><path d="M316.98758,212.65204c-0.04441,-0.29198 0.08069,-0.55199 0.08069,-0.55199c0.53398,-1.10487 0.79251,-2.30923 1.31851,-3.41464c0.21611,-0.45416 0.25514,-1.14388 0.72502,-1.32326c0.55604,-0.21226 1.23602,0.0712 1.74449,0.38054c1.09395,0.66552 1.68503,2.9859 1.89874,4.16491c0.08815,0.48629 0.42408,1.0426 0.17903,1.47178c-0.27433,0.48046 -0.95381,0.56853 -1.46494,0.78032c-1.32846,0.55045 -3.99217,0.57232 -4.46148,-1.22394c-0.02249,-0.08608 -0.02805,-0.18158 -0.02006,-0.28373z"/></g></g></svg>