<svg version="1.1" xmlns="http://www.w3.org/2000/svg" xmlns:xlink="http://www.w3.org/1999/xlink" width="72.66291" height="32.99643" viewBox="0,0,72.66291,32.99643"><g transform="translate(-282.99654,-164.12678)"><g data-paper-data="{&quot;isPaintingLayer&quot;:true}" fill-rule="nonzero" stroke-linejoin="miter" stroke-miterlimit="10" stroke-dasharray="" stroke-dashoffset="0" style="mix-blend-mode: normal"><g><path d="M293.20498,173.53123c0,-3.09571 2.50957,-5.60528 5.60528,-5.60528c3.09571,0 5.60528,2.50957 5.60528,5.60528c0,3.09571 -2.50957,5.60528 -5.60528,5.60528c-3.09571,0 -5.60528,-2.50957 -5.60528,-5.60528z" fill="#929292" stroke="none" stroke-width="0.5" stroke-linecap="butt"/><path d="M321.23137,174.73679c-0.24766,2.16141 -8.02122,5.8816 -9.44203,3.39518c-0.1266,-0.07471 -0.24914,-0.15559 -0.3672,-0.2422c-0.72909,0.53489 -1.62888,0.85079 -2.60245,0.85079c-2.43234,0 -4.40415,-1.97181 -4.40415,-4.40415c0,-2.43234 1.9718,-4.40414 4.40415,-4.40414c0.97357,0 1.87336,0.3159 2.60245,0.85079c0.65109,-0.47766 1.4383,-0.78068 2.29261,-0.84005c3.85454,-2.7791 8.44138,-3.27678 7.51662,4.79379z" fill="#929292" stroke="none" stroke-width="0.5" stroke-linecap="butt"/><path d="M347.65625,175.93792c0.6336,2.14181 -4.94015,6.68496 -6.92563,4.90848c-1.95617,-0.41571 -3.43217,-2.1301 -3.48282,-4.19799c-2.0408,2.00825 -10.23145,4.10822 -11.84564,1.28338c-1.29809,-0.76611 -2.1689,-2.17914 -2.1689,-3.79556c0,-1.60405 0.85753,-3.00781 2.13916,-3.77786c0.25503,-0.19421 0.57343,-0.3382 1.00531,-0.44351c0.32788,-0.0977 0.67178,-0.15823 1.0268,-0.17673c-0.1091,-0.38362 -0.1675,-0.78859 -0.1675,-1.20719c0,-1.24533 0.51687,-2.36993 1.34779,-3.17099c0.79201,-0.76355 1.86935,-1.23316 3.05636,-1.23316c0.24741,0 0.49006,0.02041 0.72635,0.05962c6.04683,-0.37938 6.9128,4.26828 5.49037,7.74913c0.43335,0.37895 0.73179,0.82082 0.83951,1.33561c0.57362,-0.51879 1.28449,-0.88864 2.07162,-1.04856c2.49575,-1.47463 5.49084,-1.00494 6.88723,3.71533z" fill="#929292" stroke="none" stroke-width="0.5" stroke-linecap="butt"/><path d="M354.40945,195.87322c-11.37466,0 -61.86644,0 -68.57143,0c-1.4422,0 -1.79008,-0.71428 -1.79008,-0.71428c0,0 -0.33524,-0.45164 0.1146,-1.61594c1.10693,-2.86498 5.84434,-15.12652 7.49092,-19.38825c0.35525,-0.91948 0.70948,-1.18086 0.70948,-1.18086c0,0 0.25221,-0.28572 0.97508,-0.28572c7.33936,0 48.47057,0 53,0c0.79594,0 1.02775,0.07143 1.02775,0.07143c0,0 0.4981,0.29342 0.74338,0.92826c1.46003,3.7789 6.61629,17.12451 7.74032,20.03377c0.4199,1.0868 0.11701,1.72302 0.11701,1.72302c0,0 -0.1008,0.42857 -1.55703,0.42857z" fill="#00ffff" stroke="#000000" stroke-width="2.5" stroke-linecap="round"/></g></g></g></svg>