<svg version="1.1" xmlns="http://www.w3.org/2000/svg" xmlns:xlink="http://www.w3.org/1999/xlink" width="343.90228" height="105.1006" viewBox="0,0,343.90228,105.1006"><g transform="translate(-148.04886,-127.4497)"><g data-paper-data="{&quot;isPaintingLayer&quot;:true}" fill-opacity="0.4902" fill="#969696" fill-rule="nonzero" stroke="#000000" stroke-width="4.5" stroke-linecap="butt" stroke-linejoin="miter" stroke-miterlimit="10" stroke-dasharray="" stroke-dashoffset="0" style="mix-blend-mode: normal"><path d="M152.70575,226.93829c0,0 -1.98739,-1.83966 -2.05705,-6.38689c-0.31485,-20.55343 -0.34984,-77.49533 -0.34984,-85.83535c0,-2.72091 1.48116,-4.17585 1.48116,-4.17585c0,0 1.25978,-0.8405 5.11401,-0.8405c24.36988,0 269.02715,0 322.52253,0c6.607,0 6.78031,0.60036 6.78031,0.60036c0,0 3.5127,0.91212 3.50426,4.69747c-0.04264,19.12009 -0.17165,78.5687 -0.17165,89.21514c0,3.23692 -2.96232,4.28656 -2.96232,4.28656c0,0 -0.68179,1.80108 -7.52089,1.80108c-43.12473,0 -263.64374,-0.39766 -316.78569,-0.76003c-7.41686,-0.05057 -9.55484,-2.60198 -9.55484,-2.60198z"/></g></g></svg>