<svg version="1.1" xmlns="http://www.w3.org/2000/svg" xmlns:xlink="http://www.w3.org/1999/xlink" width="724.00951" height="364.79175" viewBox="0,0,724.00951,364.79175"><g transform="translate(47.25376,4.00503)"><g data-paper-data="{&quot;isPaintingLayer&quot;:true}" fill-rule="nonzero" stroke-linejoin="miter" stroke-miterlimit="10" stroke-dasharray="" stroke-dashoffset="0" style="mix-blend-mode: normal"><path d="M-25.004,-3.003h685.00796v290l-683.64939,-15z" fill="#99ffff" stroke="#ccffff" stroke-width="2.00406" stroke-linecap="butt"/><path d="M435.31269,307.006v-37" fill="none" stroke="#9e4e00" stroke-width="2.88236" stroke-linecap="round"/><path d="M81.46884,267.53483v37" fill="none" stroke="#9e4e00" stroke-width="2.88236" stroke-linecap="round"/><path d="M355.91521,143.28785c19.88103,0 173.03087,85.474 186.07496,94.99585c13.04409,9.5233 102.20008,30.18154 102.20008,44.69419c0,14.51264 -261.82866,9.64535 -274.87275,19.16865c-13.04409,9.52185 -31.05879,15.41627 -50.93982,15.41627c-19.88103,0 -37.89573,-5.89442 -50.93982,-15.41627c-13.04409,-9.52329 -49.64753,11.86051 -49.64753,-2.65214c0,-11.09477 -212.28108,19.3771 -243.49746,-25.07419c-5.91366,-8.42089 -43.39679,-114.71786 2.17644,-163.47418c11.62553,-12.43752 47.20929,-9.38118 74.70321,-10.34733c39.99293,-1.40537 72.92171,-2.94435 73.6227,-3.45613c13.04409,-9.52186 211.23897,46.14529 231.12,46.14529z" data-paper-data="{&quot;index&quot;:null}" fill="#00cc44" stroke="#00cc44" stroke-width="2.88236" stroke-linecap="butt"/><path d="M-6.78465,285.006l653.67914,-3l11.12645,60l-667.58721,5z" fill="#00cc44" stroke="#00cc44" stroke-width="2" stroke-linecap="butt"/><path d="M-9.56627,286.03483h685.00796v73.43782h-685.00796z" fill="#663b00" stroke="#663b00" stroke-width="2.62812" stroke-linecap="butt"/><path d="M68.06884,279.73483v-19.35556h26.8v19.35556z" fill="#69c500" stroke="#69c500" stroke-width="2.88236" stroke-linecap="butt"/><path d="M209.59196,168v37" fill="none" stroke="#9e4e00" stroke-width="2.88236" stroke-linecap="round"/><path d="M200.59196,183.6v-21.2h18v21.2z" fill="#69c500" stroke="#69c500" stroke-width="2.88236" stroke-linecap="butt"/><path d="M420.61269,280.62266v-21.23333h29.4v21.23333z" fill="#69c500" stroke="#69c500" stroke-width="2.88236" stroke-linecap="butt"/><path d="M299.18884,211.94293v37" fill="none" stroke="#9e4e00" stroke-width="2.88236" stroke-linecap="round"/><path d="M284.48884,224.34293v-18.13812h29.4v18.13812z" fill="#69c500" stroke="#69c500" stroke-width="2.88236" stroke-linecap="butt"/></g></g></svg>