<svg version="1.1" xmlns="http://www.w3.org/2000/svg" xmlns:xlink="http://www.w3.org/1999/xlink" width="90.28271" height="80.05459" viewBox="0,0,90.28271,80.05459"><g transform="translate(-274.29005,-140.47301)"><g data-paper-data="{&quot;isPaintingLayer&quot;:true}" fill-rule="nonzero" stroke="#000000" stroke-width="5.5" stroke-linejoin="miter" stroke-miterlimit="10" stroke-dasharray="" stroke-dashoffset="0" style="mix-blend-mode: normal"><path d="M278.64326,145.22125c0,0 1.14527,-1.39617 5.63709,-1.4321c16.71656,-0.13374 57.57833,-0.46063 70.77667,-0.56622c4.20171,-0.03361 5.62059,1.54909 5.62059,1.54909c0,0 1.14515,1.0208 1.14515,5.21924c0,14.13208 0,46.10272 0,55.88327c0,5.52724 -2.2903,8.69666 -2.2903,8.69666c0,0 -3.62775,3.20642 -9.0587,3.20642c-10.68993,0 -48.80592,0 -65.50252,0c-4.88076,0 -6.55702,-3.89351 -6.55702,-3.89351c0,0 -1.37418,-1.3718 -1.37418,-6.17734c0,-6.7618 0,-41.632 0,-56.79939c0,-4.33483 1.60322,-5.68613 1.60322,-5.68613z" fill="#ff0000" stroke-linecap="round"/><path d="M300.64022,163.28782c0,2.04647 -1.29033,3.70546 -2.88202,3.70546c-1.59171,0 -2.88202,-1.65899 -2.88202,-3.70546c0,-2.04647 1.29031,-3.70546 2.88202,-3.70546c1.59171,0 2.88202,1.65899 2.88202,3.70546z" fill="#000000" stroke-linecap="butt"/><path d="M341.59146,163.28782c0,2.04647 -1.29033,3.70546 -2.88202,3.70546c-1.59171,0 -2.88202,-1.65899 -2.88202,-3.70546c0,-2.04647 1.29031,-3.70546 2.88202,-3.70546c1.59171,0 2.88202,1.65899 2.88202,3.70546z" fill="#000000" stroke-linecap="butt"/><path d="M295.41455,197.18594h48.03375" fill="none" stroke-linecap="round"/></g></g></svg>