<svg version="1.1" xmlns="http://www.w3.org/2000/svg" xmlns:xlink="http://www.w3.org/1999/xlink" width="702.76674" height="364.79177" viewBox="0,0,702.76674,364.79177"><g transform="translate(26.01099,4.00503)"><g data-paper-data="{&quot;isPaintingLayer&quot;:true}" fill-rule="nonzero" stroke-linejoin="miter" stroke-miterlimit="10" stroke-dasharray="" stroke-dashoffset="0" style="mix-blend-mode: normal"><path d="M-25.004,-3.003h685.00796v290l-683.64939,-15z" fill="#99ffff" stroke="#ccffff" stroke-width="2.00406" stroke-linecap="butt"/><path d="M375.61759,145.79237c19.88103,0 168.52637,86.9755 181.57046,96.49735c13.04409,9.5233 102.20008,30.18154 102.20008,44.69419c0,14.51264 -261.82866,9.64535 -274.87275,19.16865c-13.04409,9.52185 -31.05879,15.41627 -50.93982,15.41627c-19.88103,0 -37.89573,-5.89442 -50.93982,-15.41627c-13.04409,-9.52329 -49.64753,11.86051 -49.64753,-2.65214c0,-11.09477 -212.28108,19.3771 -243.49746,-25.07419c-6.8068,-9.6927 159.97656,-96.36123 206.46344,-145.21981c19.18919,-20.1682 90.28848,-58.42956 91.18606,-59.08487c13.04409,-9.52186 64.09182,73.17232 83.97285,73.17232z" data-paper-data="{&quot;index&quot;:null}" fill="#00cc44" stroke="#00cc44" stroke-width="2.88236" stroke-linecap="butt"/><path d="M-6.78465,285.00601l653.67914,-3l11.12645,60l-667.58721,5z" fill="#00cc44" stroke="#00cc44" stroke-width="2" stroke-linecap="butt"/><path d="M-9.56627,334.53934h685.00796v24.93334h-685.00796z" fill="#663b00" stroke="#663b00" stroke-width="2.62812" stroke-linecap="butt"/><path d="M329.58512,104.55333c2.88276,2.58391 11.98096,5.4281 9.23164,11.15046c-0.80945,1.68477 -3.28731,1.87712 -5.10118,2.32825c-3.25185,0.80878 -7.49449,-0.02941 -10.90126,0.26805c-15.3113,1.33689 -30.49077,0.25712 -45.8096,0.25815c-8.78842,-0.62385 -17.50897,-2.06028 -26.29789,-2.50217c-5.18741,-0.26081 -10.28776,-0.31232 -15.36161,-1.29647c-3.4402,-0.66728 -13.5307,0.37258 -14.25092,-5.15146c-0.23009,-1.76474 2.47189,-2.56198 3.75098,-3.7994c3.49145,-3.37771 8.18469,-5.50667 12.49374,-7.66119c3.95152,-2.6275 8.42178,-4.18157 12.71734,-6.11229c3.4847,-1.56626 7.02347,-3.17731 10.49284,-4.74672c0.39265,-0.17762 0.77638,-0.37741 1.15386,-0.59244c-0.52646,-0.45833 -0.85922,-1.13344 -0.85922,-1.88627c0,-0.82831 0.40283,-1.56254 1.02328,-2.01746l1.97672,-1.48254c4.70493,-3.44755 10.59664,-3.61045 15.49518,-6.91228c2.98932,-1.49206 5.40444,-3.85995 8.91876,-4.08624c8.21142,-0.52874 14.01733,6.71496 18.83538,13.3281l2.36871,1.18435l-0.03356,0.06712c0.16503,0.06778 0.32757,0.14234 0.48722,0.22479c1.06623,0.55061 1.48454,1.88836 2.29113,2.77686c2.59378,2.85721 5.31639,5.49129 7.8804,8.37194l2.15834,1.91853c0.52022,0.45813 0.84844,1.12915 0.84844,1.87683c0,0.22959 -0.03095,0.45194 -0.0889,0.66313c2.20903,1.30804 4.46575,2.52889 6.58018,3.83036z" fill="#ffffff" stroke="none" stroke-width="0.5" stroke-linecap="butt"/><path d="M167.46884,197.53484v49" fill="none" stroke="#9e4e00" stroke-width="5" stroke-linecap="round"/><path d="M321.46884,243.53484v45" fill="none" stroke="#9e4e00" stroke-width="5" stroke-linecap="round"/><path d="M385.46884,176.53484v67" fill="none" stroke="#9e4e00" stroke-width="5" stroke-linecap="round"/><path d="M257.46884,156.53484l2,57" fill="none" stroke="#9e4e00" stroke-width="5" stroke-linecap="round"/><path d="M150.46884,224.53484v-37h37v37z" fill="#69c500" stroke="#69c500" stroke-width="5" stroke-linecap="butt"/><path d="M240.96884,176.53484v-37h37v37z" fill="#69c500" stroke="#69c500" stroke-width="5" stroke-linecap="butt"/><path d="M302.96884,262.03484v-37h37v37z" fill="#69c500" stroke="#69c500" stroke-width="5" stroke-linecap="butt"/><path d="M366.96884,195.03484v-37h37v37z" fill="#69c500" stroke="#69c500" stroke-width="5" stroke-linecap="butt"/></g></g></svg>