<svg version="1.1" xmlns="http://www.w3.org/2000/svg" xmlns:xlink="http://www.w3.org/1999/xlink" width="187.61688" height="258.64666" viewBox="0,0,187.61688,258.64666"><g transform="translate(-226.19156,-49.72947)"><g data-paper-data="{&quot;isPaintingLayer&quot;:true}" fill-rule="nonzero" stroke-linecap="butt" stroke-linejoin="miter" stroke-miterlimit="10" stroke-dasharray="" stroke-dashoffset="0" style="mix-blend-mode: normal"><path d="M229.74014,297.69602c0,0 -1.07225,-4.61287 -1.10983,-16.01489c-0.16987,-51.53695 -0.18875,-194.31666 -0.18875,-215.22894c0,-6.82258 0.79913,-10.4708 0.79913,-10.4708c0,0 0.67969,-2.10752 2.75915,-2.10752c13.14822,0 145.14756,0 174.00979,0c3.56466,0 3.65816,1.50538 3.65816,1.50538c0,0 1.8952,2.2871 1.89064,11.77873c-0.02301,47.9429 -0.09261,197.00808 -0.09261,223.70362c0,8.11645 -1.59825,10.74839 -1.59825,10.74839c0,0 -0.36784,4.51613 -4.05773,4.51613c-23.26698,0 -142.24306,-0.99711 -170.9146,-1.90574c-4.0016,-0.12681 -5.1551,-6.52436 -5.1551,-6.52436z" fill="none" stroke="#000000" stroke-width="4.5"/><text transform="translate(233.75,74.63814) scale(0.48936,0.48936)" font-size="40" xml:space="preserve" fill="#000000" fill-rule="nonzero" stroke="none" stroke-width="1" stroke-linecap="butt" stroke-linejoin="miter" stroke-miterlimit="10" stroke-dasharray="" stroke-dashoffset="0" font-family="Pixel" font-weight="normal" text-anchor="start" style="mix-blend-mode: normal"><tspan x="0" dy="0">this game was</tspan><tspan x="0" dy="46.15px">made for a </tspan><tspan x="0" dy="46.15px">school project</tspan><tspan x="0" dy="46.15px">but will be</tspan><tspan x="0" dy="46.15px">expanded later</tspan><tspan x="0" dy="46.15px">on. </tspan><tspan x="0" dy="46.15px">made by:</tspan><tspan x="0" dy="46.15px">David Zubovskis</tspan><tspan x="0" dy="46.15px">(coder)</tspan><tspan x="0" dy="46.15px">and Raffety</tspan><tspan x="0" dy="46.15px">(art)</tspan></text></g></g></svg>