<svg version="1.1" xmlns="http://www.w3.org/2000/svg" xmlns:xlink="http://www.w3.org/1999/xlink" width="615.55682" height="283.77928" viewBox="0,0,615.55682,283.77928"><g transform="translate(-12.20945,-69.64189)"><g data-paper-data="{&quot;isPaintingLayer&quot;:true}" fill-opacity="0.4902" fill="#969696" fill-rule="nonzero" stroke="#000000" stroke-width="4.5" stroke-linecap="butt" stroke-linejoin="miter" stroke-miterlimit="10" stroke-dasharray="" stroke-dashoffset="0" style="mix-blend-mode: normal"><path d="M18.79279,341.83784c0,0 -3.57808,-5.10711 -3.70349,-17.73077c-0.56685,-57.05877 -0.62985,-215.1363 -0.62985,-238.28918c0,-7.55357 2.66667,-11.59267 2.66667,-11.59267c0,0 2.2681,-2.33333 9.20721,-2.33333c43.87532,0 484.35407,0 580.66667,0c11.89518,0 12.20721,1.66667 12.20721,1.66667c0,0 6.32423,2.53215 6.30903,13.04074c-0.07677,53.07964 -0.30903,218.11609 -0.30903,247.67187c0,8.98607 -5.33333,11.9 -5.33333,11.9c0,0 -1.22748,5 -13.54054,5c-77.64138,0 -474.66182,-1.10394 -570.3381,-2.10993c-13.35325,-0.1404 -17.20244,-7.2234 -17.20244,-7.2234z"/></g></g></svg>