<svg version="1.1" xmlns="http://www.w3.org/2000/svg" xmlns:xlink="http://www.w3.org/1999/xlink" width="120.99999" height="168.55627" viewBox="0,0,120.99999,168.55627"><g transform="translate(-259.5,-100.8334)"><g data-paper-data="{&quot;isPaintingLayer&quot;:true}" fill-rule="nonzero" stroke-linejoin="miter" stroke-miterlimit="10" stroke-dasharray="" stroke-dashoffset="0" style="mix-blend-mode: normal"><path d="M265,251.33341c0,0 -3,-4.6888 -3,-13.56667c0,-17.27008 0,-78.39827 0,-111.66667c0,-13.05358 4.33333,-17.76667 4.33333,-17.76667c0,0 5.20958,-4.41991 18.33082,-4.53066c23.28986,-0.19658 57.85336,-0.46934 70.33584,-0.46934c8.2717,0 15.66667,2.33333 15.66667,2.33333c0,0 7.33333,6.6 7.33333,19.1c0,33.22954 0,96.37562 0,113.66667c0,8.60171 -5.33333,13.9 -5.33333,13.9c0,0 -3.64575,3.66667 -16.33333,3.66667c-25.51067,0 -66.01417,0 -78.66667,0c-7.48623,0 -12.66667,-4.66667 -12.66667,-4.66667z" fill-opacity="0.5098" fill="#a7a7a7" stroke-opacity="0.28235" stroke="#000000" stroke-width="5" stroke-linecap="butt"/><path d="M275.36309,198.35893c0,0 -2.01621,-1.90689 -2.01621,-6.6446c0,-9.21626 0,-41.83763 0,-59.59148c0,-6.96611 3.48558,-9.48127 3.48558,-9.48127c0,0 4.1904,-2.35871 14.74465,-2.41781c18.73352,-0.10491 46.53516,-0.25047 56.57562,-0.25047c6.65346,0 12.6017,1.24519 12.6017,1.24519c0,0 5.89867,3.52213 5.89867,10.19281c0,17.73311 0,51.43133 0,60.65879c0,4.59035 -4.28994,7.4178 -4.28994,7.4178c0,0 -2.93251,1.95674 -13.13794,1.95674c-20.51986,0 -53.09941,0 -63.27663,0c-6.02166,0 -10.18862,-2.4904 -10.18862,-2.4904z" fill-opacity="0.36471" fill="#9c9c9c" stroke-opacity="0.45882" stroke="#000000" stroke-width="5" stroke-linecap="butt"/><path d="M275.3631,245.93105c0,0 -2.01621,-1.25219 -2.01621,-3.62311c0,-4.61214 0,-20.93703 0,-29.82167c0,-3.48609 3.48558,-4.74476 3.48558,-4.74476c0,0 4.1904,-1.18038 14.74465,-1.20996c18.73352,-0.0525 46.53516,-0.12535 56.57562,-0.12535c6.65346,0 12.6017,0.62314 12.6017,0.62314c0,0 5.89867,1.76259 5.89867,5.10084c0,8.87427 0,25.73804 0,30.35579c0,2.29717 -4.28994,3.71213 -4.28994,3.71213c0,0 -2.93251,0.97922 -13.13794,0.97922c-20.51986,0 -53.09941,0 -63.27663,0c-6.02166,0 -10.18862,-1.24628 -10.18862,-1.24628z" fill-opacity="0.30588" fill="#9c9c9c" stroke-opacity="0.27059" stroke="#000000" stroke-width="5" stroke-linecap="butt"/><text transform="translate(294.77655,235.43979) scale(0.72067,0.72067)" font-size="40" xml:space="preserve" fill-opacity="0.19216" fill="#000000" fill-rule="nonzero" stroke-opacity="0.42745" stroke="#000000" stroke-width="1" stroke-linecap="butt" stroke-linejoin="miter" stroke-miterlimit="10" stroke-dasharray="" stroke-dashoffset="0" font-family="Pixel" font-weight="normal" text-anchor="start" style="mix-blend-mode: normal"><tspan x="0" dy="0">ball</tspan></text><path d="M290.27046,125.68116c0,0 -1.58523,-0.46756 -1.58523,-1.35285c0,-1.72214 0,-7.81775 0,-11.13522c0,-1.30168 2.28978,-1.77166 2.28978,-1.77166c0,0 2.75279,-0.44075 9.68618,-0.45179c12.30658,-0.0196 30.57027,-0.0468 37.16613,-0.0468c4.37085,0 8.27841,0.23268 8.27841,0.23268c0,0 3.875,0.65814 3.875,1.90462c0,3.3136 0,9.61042 0,11.33466c0,0.85775 -2.81818,1.38609 -2.81818,1.38609c0,0 -1.92645,0.36564 -8.63069,0.36564c-13.48008,0 -34.88251,0 -41.56821,0c-3.9558,0 -6.69319,-0.46535 -6.69319,-0.46535z" fill-opacity="0.37255" fill="#9c9c9c" stroke-opacity="0.44314" stroke="#000000" stroke-width="3" stroke-linecap="butt"/><text transform="translate(293.70773,121.75188) scale(0.29286,0.2681)" font-size="40" xml:space="preserve" fill-opacity="0.60392" fill="#000000" fill-rule="nonzero" stroke="none" stroke-width="1" stroke-linecap="butt" stroke-linejoin="miter" stroke-miterlimit="10" stroke-dasharray="" stroke-dashoffset="0" font-family="Pixel" font-weight="normal" text-anchor="start" style="mix-blend-mode: normal"><tspan x="0" dy="0">100 coins</tspan></text><path d="M341.65751,162.04849c0,11.72672 -9.99503,21.2331 -22.32452,21.2331c-12.3295,0 -22.32452,-9.50638 -22.32452,-21.2331c0,-11.72672 9.99503,-21.2331 22.32452,-21.2331c12.3295,0 22.32452,9.50638 22.32452,21.2331z" fill-opacity="0.2" fill="#51ff00" stroke-opacity="0.43529" stroke="#000000" stroke-width="3.5" stroke-linecap="butt"/><path d="M311.69013,149.16014c0.55579,-0.36404 1.35021,-0.56342 2.38327,-0.04689c2.23607,1.11803 1.11804,3.3541 1.11804,3.3541l-1.39861,2.72503c-1.69241,1.73 -3.6473,3.41644 -4.75674,5.61684c-0.49517,0.98209 -0.40161,2.38807 -1.2895,3.03719c-0.2124,0.15527 -0.4346,0.29184 -0.66463,0.41351l0.07176,0.11276l-2.15132,1.36902c-0.39421,0.25975 -0.86631,0.4109 -1.37371,0.4109c-1.38071,0 -2.5,-1.11929 -2.5,-2.5c0,-0.1348 0.01067,-0.2671 0.0312,-0.39612l0.3908,-2.73559l0.04512,0.00644l-0.01979,-0.15263c1.35866,-4.93642 3.53721,-8.20376 7.88627,-10.9561c0,0 1.11505,-0.68618 2.22785,-0.25847z" fill-opacity="0.52549" fill="#ffffff" stroke="none" stroke-width="0.5" stroke-linecap="butt"/><path d="M268.26659,251.40698l100.52463,-141.22484" fill="none" stroke="#ff0000" stroke-width="5.5" stroke-linecap="round"/><path d="M265.81477,107.73032l105.42827,143.1863" fill="none" stroke="#ff0000" stroke-width="5.5" stroke-linecap="round"/><text transform="translate(277.05407,212.4062) scale(0.5,0.5)" font-size="40" xml:space="preserve" fill="#000000" fill-rule="nonzero" stroke="none" stroke-width="1" stroke-linecap="butt" stroke-linejoin="miter" stroke-miterlimit="10" stroke-dasharray="" stroke-dashoffset="0" font-family="Pixel" font-weight="normal" text-anchor="start" style="mix-blend-mode: normal"><tspan x="0" dy="0">brought</tspan></text></g></g></svg>