<svg version="1.1" xmlns="http://www.w3.org/2000/svg" xmlns:xlink="http://www.w3.org/1999/xlink" width="120.50001" height="45.5" viewBox="0,0,120.50001,45.5"><g transform="translate(-259.75,-157.25)"><g data-paper-data="{&quot;isPaintingLayer&quot;:true}" fill-rule="nonzero" stroke-linecap="butt" stroke-linejoin="miter" stroke-miterlimit="10" stroke-dasharray="" stroke-dashoffset="0" style="mix-blend-mode: normal"><path d="M262.50001,192.93334c0,-7.73069 0,-19.6462 0,-24.33334c0,-3.76366 4.08159,-8.6 8.5,-8.6c13.027,0 78.24068,0 99.66667,0c4.29742,0 6.83333,5.14095 6.83333,7.93333c0,7.87602 0,20.25292 0,25.33334c0,3.09601 -3.0606,6.73333 -8.16667,6.73333c-23.60715,0 -90.93687,0 -101.66667,0c-2.83053,0 -5.16667,-4.85902 -5.16667,-7.06666z" fill="#ada9a9" stroke="#000000" stroke-width="5.5"/><text transform="translate(277.25,176.5) scale(0.29167,0.29167)" font-size="40" xml:space="preserve" fill="#000000" fill-rule="nonzero" stroke="none" stroke-width="1" stroke-linecap="butt" stroke-linejoin="miter" stroke-miterlimit="10" stroke-dasharray="" stroke-dashoffset="0" font-family="Pixel" font-weight="normal" text-anchor="start" style="mix-blend-mode: normal"><tspan x="0" dy="0">tutorial? </tspan><tspan x="0" dy="48px">if no dont click</tspan></text></g></g></svg>