<svg version="1.1" xmlns="http://www.w3.org/2000/svg" xmlns:xlink="http://www.w3.org/1999/xlink" width="724.00951" height="364.79174" viewBox="0,0,724.00951,364.79174"><g transform="translate(47.25375,4.00503)"><g data-paper-data="{&quot;isPaintingLayer&quot;:true}" fill-rule="nonzero" stroke-linejoin="miter" stroke-miterlimit="10" stroke-dasharray="" stroke-dashoffset="0" style="mix-blend-mode: normal"><path d="M-25.00399,-3.003h685.00796v290l-683.64939,-15z" fill="#99ffff" stroke="#ccffff" stroke-width="2.00406" stroke-linecap="butt"/><path d="M435.3127,270.006v37" fill="none" stroke="#9e4e00" stroke-width="2.88236" stroke-linecap="round"/><path d="M81.46885,267.53482v37" fill="none" stroke="#9e4e00" stroke-width="2.88236" stroke-linecap="round"/><path d="M355.91522,143.28785c19.88103,0 173.03087,85.474 186.07496,94.99585c13.04409,9.5233 102.20008,30.18154 102.20008,44.69419c0,14.51264 -261.82866,9.64535 -274.87275,19.16865c-13.04409,9.52185 -31.05879,15.41627 -50.93982,15.41627c-19.88103,0 -37.89573,-5.89442 -50.93982,-15.41627c-13.04409,-9.52329 -49.64753,11.86051 -49.64753,-2.65214c0,-11.09477 -212.28108,19.3771 -243.49746,-25.07419c-5.91366,-8.42089 -43.39679,-114.71786 2.17644,-163.47418c11.62553,-12.43752 47.20929,-9.38118 74.70321,-10.34733c39.99293,-1.40537 72.92171,-2.94435 73.6227,-3.45613c13.04409,-9.52186 211.23897,46.14529 231.12,46.14529z" data-paper-data="{&quot;index&quot;:null}" fill="#00cc44" stroke="#00cc44" stroke-width="2.88236" stroke-linecap="butt"/><path d="M-6.78464,285.006l653.67914,-3l11.12645,60l-667.58721,5z" fill="#00cc44" stroke="#00cc44" stroke-width="2" stroke-linecap="butt"/><path d="M-9.56626,286.03482h685.00796v73.43782h-685.00796z" fill="#663b00" stroke="#663b00" stroke-width="2.62812" stroke-linecap="butt"/><path d="M68.06885,279.73483v-19.35556h26.8v19.35556z" fill="#69c500" stroke="#69c500" stroke-width="2.88236" stroke-linecap="butt"/><path d="M209.59197,168v37" fill="none" stroke="#9e4e00" stroke-width="2.88236" stroke-linecap="round"/><path d="M200.59197,183.6v-21.2h18v21.2z" fill="#69c500" stroke="#69c500" stroke-width="2.88236" stroke-linecap="butt"/><path d="M420.6127,280.62266v-21.23333h29.4v21.23333z" fill="#69c500" stroke="#69c500" stroke-width="2.88236" stroke-linecap="butt"/><path d="M299.18885,211.94293v37" fill="none" stroke="#9e4e00" stroke-width="2.88236" stroke-linecap="round"/><path d="M284.48885,224.34293v-18.13812h29.4v18.13812z" fill="#69c500" stroke="#69c500" stroke-width="2.88236" stroke-linecap="butt"/><path d="M112.43973,152.7871c0.05348,-0.77552 0.12852,-1.54301 0.21924,-2.2961c0.45951,-3.81465 1.17822,-7.97826 7.02716,-7.38491c1.6753,0.16995 2.25839,2.49868 3.36143,3.77101c1.51412,1.74651 3.77686,4.3663 4.76985,6.45406c0.66636,1.40101 0.80897,3.011 1.45926,4.41955c0.37232,0.80645 1.25375,1.32175 1.57388,2.15031c0.60883,1.57576 0.68096,3.31356 1.16281,4.93268c1.07048,3.597 2.95685,7.0129 4.01599,10.59407c0.67541,2.2837 1.24007,4.60905 1.59766,6.96354c0.15625,1.02879 -0.29273,2.10546 -0.06606,3.12106c0.19923,0.89263 0.9146,1.5867 1.30172,2.41531c1.34491,2.87871 2.28679,5.89455 3.16017,8.93854c0.68505,2.49176 2.16098,4.69593 3.31525,7.00803c1.79041,3.58632 3.5836,8.03603 5.08491,11.69689c1.63603,3.98935 2.18286,8.2734 3.13795,12.44124c0.48282,2.10698 1.70951,4.12956 1.58668,6.28765c-0.14261,2.5057 -0.87834,5.12078 -2.35164,7.15258c-1.3943,1.92285 -4.59475,1.20923 -6.87036,1.88969c-0.71646,0.21424 -1.04883,1.1426 -1.74919,1.40473c-1.85625,0.69475 -4.02087,0.04774 -5.91101,0.64413c-2.19162,0.69151 -4.38556,2.69877 -6.58646,2.03741c-5.78974,-1.73979 -4.68156,-8.29798 -5.46298,-13.00769c-0.92808,-3.79209 -0.74484,-7.27717 -1.50844,-11.04191c-0.9655,-4.76015 -2.42533,-9.38892 -3.03449,-14.22372c-0.62294,-4.94414 -0.72011,-9.28962 -1.93011,-14.11586c-1.1798,-4.70576 -2.58156,-9.39325 -3.53444,-14.15554c-0.34703,-1.73436 0.08211,-3.69472 -0.75648,-5.25203c-0.47679,-0.88541 -1.48692,-1.42113 -1.91518,-2.33101c-2.60929,-5.5437 -2.87988,-11.55129 -2.88895,-17.54172c0,0 0,-2.18521 1.79183,-2.97196zM133.94278,237.14011c-0.19657,-0.15369 -0.3978,-0.30352 -0.6023,-0.45063c0.06704,0.3397 0.12717,0.68016 0.17568,1.02191l0.54886,-0.21954c-0.04162,-0.11697 -0.08235,-0.23422 -0.12223,-0.35174z" fill="#757575" stroke="none" stroke-width="0.5" stroke-linecap="butt"/><path d="M126.14789,235.80149c0,-3.25 3.25,-3.25 3.25,-3.25h0.5c4.33097,0.11598 7.71519,1.42752 10.132,5.00716c0.22882,-0.26465 0.46864,-0.5068 0.71875,-0.71684c0.00621,-0.02072 0.01252,-0.0414 0.01894,-0.06204l-0.07546,-0.01258l0.49122,-2.9473c0.15076,-1.01493 0.77075,-1.87679 1.6323,-2.3579l-0.09146,-0.45732c-0.04994,-0.22644 -0.07627,-0.46173 -0.07627,-0.70318c0,-1.79493 1.45507,-3.25 3.25,-3.25c1.54668,0 2.84101,1.08042 3.16945,2.52771l0.20248,0.8099c0.59097,-0.81075 1.548,-1.33762 2.62807,-1.33762c1.46198,0 2.69849,0.96533 3.10692,2.29336l0.9763,2.9289l-0.05938,0.01979l0.09925,0.10861c1.43844,5.93756 5.15477,11.80768 4.72939,18.09022c-0.00295,0.04357 -0.00606,0.08712 -0.00933,0.13064l0.01954,-0.00115l0.38002,6.46033c0.00483,0.07247 0.00728,0.1456 0.00728,0.2193c0,0.62879 -0.17857,1.21587 -0.48776,1.7133c0.53925,2.5277 1.28374,5.04974 1.89192,7.50328c0.66363,2.67723 1.9531,7.65047 0.58073,10.71522c-0.05505,1.89195 -0.40684,3.66812 -1.22153,5.12866c-1.36059,2.4392 -7.67058,1.68954 -10.01336,1.68954c-4.95705,-0.02926 -12.76058,2.85425 -15.90689,-2.79656c-1.55466,-2.79219 -0.05114,-8.93275 -0.32729,-12.1332c-0.33305,-3.85985 -1.98649,-7.80064 -2.91998,-11.53683c-1.38426,-5.54033 -2.7741,-10.98566 -4.01844,-16.57839c0,0 -0.70502,-3.17261 2.46758,-3.87763c0.04582,-0.01018 0.09113,-0.01956 0.13592,-0.02814c-0.42099,-0.05798 -0.89484,-0.07583 -1.4309,-0.04925h-0.5c0,0 -3.25,0 -3.25,-3.25zM142.34398,280.53676c-0.17291,-0.12147 -0.34222,-0.25327 -0.50742,-0.39564c-0.01037,0.06898 -0.02096,0.13795 -0.03177,0.20691c-0.04605,0.29355 0.19369,0.29136 0.53919,0.18872z" fill="#757575" stroke="none" stroke-width="0.5" stroke-linecap="butt"/><path d="M145.78133,167.35787c-0.03096,-0.01995 -0.06145,-0.04057 -0.09143,-0.06182c-0.07752,0.03951 -0.15048,0.07439 -0.21879,0.1053l0.15542,0.07821c0.05155,-0.0408 0.10314,-0.08136 0.15479,-0.12169zM137.3127,136.30446c3.38508,-0.69845 4.24467,-1.61541 7.36079,1.09636c1.49587,1.30177 1.96401,3.46149 3.18132,5.02686c3.18858,4.10031 6.27144,7.80595 8.98676,11.93938c0.08771,0.07421 0.17016,0.15431 0.24679,0.23964l1.69195,1.88444c0.20373,0.2222 0.39131,0.46389 0.58022,0.70397l0.41385,0.41484c0.83726,-0.01666 1.51549,0.25233 1.57682,1.15381c2.26871,0.82395 5.96279,0.82891 4.93232,5.20258c-0.63711,2.70414 -9.09229,3.42166 -11.21734,4.06263c-2.6349,0.79476 -4.67906,2.0274 -6.80897,3.75386c-1.28992,1.04559 -2.24933,2.62465 -3.79826,3.22293c-0.01962,0.00758 -0.03926,0.01516 -0.05894,0.02276c-0.48817,0.57815 -1.232,0.92867 -2.04582,0.88487c-0.1128,-0.00607 -0.22344,-0.01953 -0.3315,-0.03988c-1.65765,0.50207 -3.37638,0.76771 -4.93413,0.22327c-1.40967,-0.49267 -1.09076,-2.78261 -1.54228,-4.206c-0.3289,-1.03682 -0.54337,-2.07673 -0.70402,-3.11706c-0.09566,-0.02805 -0.19242,-0.05804 -0.29031,-0.09c-2.78123,-0.90813 -2.30695,-5.13024 -2.81439,-7.0645c-0.82506,-3.14496 -1.67808,-7.98672 -3.76533,-10.58815c-1.16985,-1.45804 -2.60684,-2.68129 -3.85603,-4.07195c0,0 -1.61428,-1.79794 0.09879,-3.44567c0.15882,-0.63492 0.55863,-1.16898 1.0921,-1.50578l2.25613,-1.46216l0.01595,0.02461c0.04054,-0.03637 0.08141,-0.07243 0.12259,-0.10817c0.70453,-0.61132 1.66207,-0.85184 2.52432,-1.20766c0.72174,-0.29784 1.89053,-0.7365 3.09129,-1.06916c0.33287,-0.60261 0.90597,-1.04949 1.58335,-1.21856l2.38394,-0.65459l0.00326,0.01187z" fill-opacity="0.38039" fill="#000000" stroke="none" stroke-width="0.5" stroke-linecap="butt"/></g></g></svg>