<svg version="1.1" xmlns="http://www.w3.org/2000/svg" xmlns:xlink="http://www.w3.org/1999/xlink" width="30.8595" height="33.13881" viewBox="0,0,30.8595,33.13881"><g transform="translate(-162.94636,-137.78016)"><g data-paper-data="{&quot;isPaintingLayer&quot;:true}" fill-rule="nonzero" stroke-linejoin="miter" stroke-miterlimit="10" stroke-dasharray="" stroke-dashoffset="0" style="mix-blend-mode: normal"><path d="M181.95391,148.81521c0,1.97596 -1.60183,3.57777 -3.57778,3.57777c-1.97595,0 -3.57778,-1.60182 -3.57778,-3.57777c0,-1.97596 1.60183,-3.57778 3.57778,-3.57778c1.97595,0 3.57778,1.60182 3.57778,3.57778z" fill="#7b7b7b" stroke="#000000" stroke-width="1" stroke-linecap="butt"/><path d="M178.28587,162.62758c0,0 0,-8.44491 0,-9.35636c0,-0.15597 0.08119,-0.07916 0.08119,-0.07916c0,0 0.02671,-0.08694 0.20083,0.08718c0.6286,0.6286 2.1205,2.35026 2.51662,2.74639c0.18817,0.18817 0.20864,0.1237 0.20864,0.1237c0,0 0.17271,-0.05087 0.09108,-0.32968c-0.1951,-0.66635 -1.07822,-3.61806 -1.07822,-3.61806" fill="none" stroke="#000000" stroke-width="1" stroke-linecap="round"/><path d="M178.29362,156.12386c0,0 -2.18888,0 -2.67272,0c-0.18035,0 -0.19277,-0.04871 -0.19277,-0.04871c0,0 -0.0495,-0.09013 0.0836,-0.23328c0.42483,-0.45688 2.67119,-2.87279 2.67119,-2.87279" fill="none" stroke="#000000" stroke-width="1" stroke-linecap="round"/><path d="M163.28223,170.66896v-13.67692h30.18775v13.67692z" fill="#8e6800" stroke="#000000" stroke-width="0.5" stroke-linecap="butt"/><path d="M176.50487,148.34715h1.26371" fill="none" stroke="#000000" stroke-width="0.5" stroke-linecap="round"/><path d="M180.1524,148.34715h-1.26371" fill="none" stroke="#000000" stroke-width="0.5" stroke-linecap="round"/><path d="M179.26427,150.40261h-1.77627" fill="none" stroke="#000000" stroke-width="0.5" stroke-linecap="round"/><path d="M163.31052,156.96654v-14.5771h2.52742v14.57711z" fill="#8e6800" stroke="#000000" stroke-width="0.5" stroke-linecap="butt"/><path d="M190.55938,156.89761v-14.82985h2.52742v14.82985z" fill="#8e6800" stroke="#000000" stroke-width="0.5" stroke-linecap="butt"/><path d="M163.19636,142.52785v-4.48493h30.3595v4.48493z" fill="#8e6800" stroke="#000000" stroke-width="0.5" stroke-linecap="butt"/><path d="M163.56165,143.92846v-1.22542h2.02518v1.22542z" fill-opacity="0.51765" fill="#232323" stroke="none" stroke-width="0" stroke-linecap="butt"/><path d="M190.81049,143.87103v-1.22542h2.02518v1.22542z" fill-opacity="0.51765" fill="#232323" stroke="none" stroke-width="0" stroke-linecap="butt"/><path d="M178.89875,163.07518h3.61882" fill="none" stroke="#543d00" stroke-width="0.5" stroke-linecap="round"/><path d="M172.06318,159.51381h-4.48045" fill="none" stroke="#543d00" stroke-width="0.5" stroke-linecap="round"/><path d="M168.78904,166.86632h-2.64232" fill="none" stroke="#543d00" stroke-width="0.5" stroke-linecap="round"/><path d="M169.306,163.2475h-2.3551" fill="none" stroke="#543d00" stroke-width="0.5" stroke-linecap="round"/><path d="M187.85963,161.00729h-2.24022" fill="none" stroke="#543d00" stroke-width="0.5" stroke-linecap="round"/><path d="M189.12333,165.94726h-4.8251" fill="none" stroke="#543d00" stroke-width="0.5" stroke-linecap="round"/><path d="M176.19899,168.76189h2.0679" fill="none" stroke="#543d00" stroke-width="0.5" stroke-linecap="round"/><path d="M191.8231,148.31268v3.4465" fill="none" stroke="#543d00" stroke-width="1" stroke-linecap="round"/><path d="M181.42617,140.04112h-2.69975" fill="none" stroke="#543d00" stroke-width="0.5" stroke-linecap="round"/><path d="M167.58274,139.86879h-1.72325" fill="none" stroke="#543d00" stroke-width="0.5" stroke-linecap="round"/><path d="M166.20415,141.47715h2.46998" fill="none" stroke="#543d00" stroke-width="0.5" stroke-linecap="round"/><path d="M188.60638,141.36227h-2.92953" fill="none" stroke="#543d00" stroke-width="0.5" stroke-linecap="round"/><path d="M187.97451,139.46669h2.81463" fill="none" stroke="#543d00" stroke-width="0.5" stroke-linecap="round"/><path d="M164.13625,147.45109v-1.95302" fill="none" stroke="#543d00" stroke-width="0.5" stroke-linecap="round"/><path d="M165.11274,149.28921v1.60837" fill="none" stroke="#543d00" stroke-width="0.5" stroke-linecap="round"/><path d="M164.25113,152.50594v1.09138" fill="none" stroke="#543d00" stroke-width="0.5" stroke-linecap="round"/><path d="M164.76813,154.97591v-1.09139" fill="none" stroke="#543d00" stroke-width="0.5" stroke-linecap="round"/><path d="M191.36357,146.87666v-1.3786" fill="none" stroke="#543d00" stroke-width="0.5" stroke-linecap="round"/><path d="M192.16775,153.65477v0.91906" fill="none" stroke="#543d00" stroke-width="1" stroke-linecap="round"/><path d="M191.88052,144.579v1.78069" fill="none" stroke="#543d00" stroke-width="0.5" stroke-linecap="round"/><text transform="translate(171.54623,140.70385) scale(0.05744,0.05744)" font-size="40" xml:space="preserve" fill="#ff5959" fill-rule="nonzero" stroke="none" stroke-width="1" stroke-linecap="butt" stroke-linejoin="miter" stroke-miterlimit="10" stroke-dasharray="" stroke-dashoffset="0" font-family="Pixel" font-weight="normal" text-anchor="start" style="mix-blend-mode: normal"><tspan x="0" dy="0">seed shop :)</tspan></text><path d="M189.94371,156.31198c0.03162,-0.00254 0.06353,-0.0049 0.09569,-0.00707c-0.01886,0.04745 -0.06002,0.07992 -0.13183,0.09234c-0.02057,0.00356 -0.04177,0.00615 -0.06354,0.00785c0.03602,-0.02848 0.0692,-0.05952 0.09968,-0.09312z" fill-opacity="0.41961" fill="#505050" stroke="none" stroke-width="0.5" stroke-linecap="butt"/></g></g></svg>